<?xml version="1.0" encoding="UTF-8" standalone="no"?>
<!-- Created with Inkscape (http://www.inkscape.org/) -->

<svg
   version="1.1"
   id="svg6734"
   xml:space="preserve"
   width="383.9653"
   height="512.01001"
   xmlns:inkscape="http://www.inkscape.org/namespaces/inkscape"
   xmlns:sodipodi="http://sodipodi.sourceforge.net/DTD/sodipodi-0.dtd"
   xmlns="http://www.w3.org/2000/svg"
   xmlns:svg="http://www.w3.org/2000/svg"><defs
     id="defs6738" /><sodipodi:namedview
     id="namedview6736"
     pagecolor="#ffffff"
     bordercolor="#000000"
     borderopacity="0.25"
     inkscape:showpageshadow="2"
     inkscape:pageopacity="0.0"
     inkscape:pagecheckerboard="0"
     inkscape:deskcolor="#d1d1d1" /><inkscape:clipboard
     min="176.14756,195.19144"
     max="560.11287,707.20142"
     geom-min="176.14756,195.19144"
     geom-max="560.11287,707.20142" /><g
     id="g6740"
     transform="matrix(3.7795276,0,0,3.7795276,-176.14756,-195.19144)"><path
       d="m 122.8055,146.44461 c 3.69887,-2.13995 4.63814,-7.94808 7.64116,-10.95111 3.00302,-3.00302 8.81063,-3.937 10.95111,-7.63852 2.11137,-3.6486 0.0439,-9.1387 1.15702,-13.30589 1.07342,-4.0349 5.41258,-7.73906 5.41258,-12.10469 0,-4.365623 -4.56935,-8.075081 -5.64621,-12.099394 -1.1131,-4.167187 0.95568,-9.657292 -1.1549,-13.305896 -2.13942,-3.698875 -7.94544,-4.6355 -10.94846,-7.638521 -3.00302,-3.00302 -3.93965,-8.810624 -7.63852,-10.951104 -3.64861,-2.11111 -9.13871,-0.04331 -13.3059,-1.157552 -3.79809,-1.078177 -7.50226,-5.647531 -11.867882,-5.647531 -4.365625,0 -8.069792,4.569354 -12.091458,5.646208 -4.180417,1.11125 -9.657292,-0.955145 -13.313834,1.153584 -3.698875,2.140479 -4.6355,7.948083 -7.638522,10.948458 -3.000375,3.003021 -8.810624,3.939646 -10.951103,7.638521 -2.111375,3.638021 -0.04233,9.141354 -1.156229,13.295312 -1.0795,4.048125 -5.648643,7.752292 -5.648643,12.117915 0,4.36563 4.569354,8.07509 5.646208,12.0994 1.113103,4.16719 -0.956468,9.65729 1.153848,13.30589 2.142649,3.69888 7.947607,4.62492 10.947982,7.64117 3.003022,3.00302 3.939647,8.81062 7.641168,10.95375 3.648604,2.11111 9.136062,0.0419 13.30325,1.15596 4.037541,1.06654 7.741708,5.64383 12.107333,5.64383 4.365622,0 8.075082,-4.56935 12.102042,-5.64621 4.16983,-1.10066 9.64671,0.96309 13.29796,-1.15358 z M 76.238831,102.4444 c 0,-11.713102 9.474729,-21.166665 21.166667,-21.166665 11.691932,0 21.166662,9.453563 21.166662,21.166665 0,11.68665 -9.47473,21.16667 -21.166662,21.16667 -11.691938,0 -21.166667,-9.47208 -21.166667,-21.16667 z m -29.178515,63.8175 c -0.859896,2.16641 -0.471223,4.62492 1.025261,6.41615 1.496483,1.78593 3.844395,2.61884 6.117166,2.15582 l 11.956522,-2.39051 5.67002,11.18394 c 1.091671,2.16085 3.24538,3.48377 5.653088,3.48377 0.09096,0 0.17571,-0.003 0.2667,-0.007 2.513542,-0.0992 4.669896,-1.60919 5.61975,-3.937 l 8.884708,-21.717 C 78.04276,160.22244 65.26603,154.00976 55.688114,144.52974 Z m 92.043514,-21.72229 c -9.56469,9.48002 -22.34406,15.69244 -36.56542,16.9201 l 8.88471,21.717 c 0.95091,2.32754 3.10621,3.83646 5.61975,3.937 0.10054,-0.24077 -0.0317,-0.003 0.28575,-0.003 2.40612,0 4.55877,-1.31578 5.64886,-3.47663 l 5.67002,-11.18658 11.95652,2.39051 c 2.27383,0.46302 4.62227,-0.36989 6.11717,-2.15583 1.49648,-1.79017 1.88515,-4.2492 1.02526,-6.41614 z"
       id="path5266"
       style="stroke-width:0.264583" /><path
       style="fill:#e8463a;fill-opacity:1;stroke-width:2.08647"
       d="m 431.70295,702.31737 c -6.68993,-4.07946 -10.35151,-11.63301 -32.97803,-68.03115 l -9.20783,-22.95115 16.62302,-2.59901 c 37.88864,-5.92389 76.60496,-23.94172 107.75312,-50.14624 6.07997,-5.11499 11.38132,-8.95401 11.78078,-8.53115 3.24315,3.43307 32.45613,83.02106 32.45613,88.42362 0,9.05252 -8.48358,19.2586 -17.33913,20.85967 -3.7151,0.67168 -17.31669,-0.98292 -30.78819,-3.74531 l -24.13293,-4.94857 -13.05637,24.70725 c -16.40017,31.03492 -25.08777,36.73261 -41.11057,26.96204 z"
       id="path5277"
       transform="scale(0.26458333)" /><path
       style="fill:#e8463a;fill-opacity:1;stroke-width:2.08647"
       d="m 281.38354,702.26037 c -4.82005,-2.9391 -9.77759,-10.36533 -18.77821,-28.12915 -8.7097,-17.18963 -13.1299,-23.87901 -15.35889,-23.24361 -1.72134,0.49068 -13.57391,2.93234 -26.33904,5.42591 -20.22372,3.95054 -23.95719,4.16737 -29.02291,1.68557 -8.33787,-4.08491 -14.36774,-13.1564 -14.03373,-21.1127 0.22687,-5.40412 30.01776,-83.76473 33.02715,-86.87311 0.43356,-0.44782 4.4237,2.47016 8.86698,6.4844 27.80001,25.11563 72.61238,46.28329 110.58976,52.23838 l 16.57464,2.59901 -17.85502,43.54614 c -15.30597,37.32934 -18.77116,44.10481 -24.2722,47.45935 -8.1698,4.98195 -15.13593,4.95808 -23.39853,-0.0802 z"
       id="path5279"
       transform="scale(0.26458333)" /><path
       style="fill:#ead64d;fill-opacity:1;stroke-width:2.08647"
       d="m 359.9157,576.03285 c -4.01645,-1.47369 -13.86011,-6.57413 -21.8748,-11.3343 l -14.57216,-8.65488 h -22.15409 c -27.51339,0 -32.40374,-2.66056 -43.86788,-23.86602 -10.21256,-18.8904 -15.49642,-24.22268 -33.69969,-34.00848 -21.86819,-11.75604 -24.4894,-16.47379 -24.4894,-44.0771 v -22.0487 l -10.71686,-18.56911 c -13.33867,-23.1119 -13.82065,-29.73441 -3.40585,-46.79705 12.95143,-21.21843 13.02414,-21.45938 14.11553,-46.77559 1.28099,-29.71408 2.56698,-31.8904 26.80006,-45.35418 17.8446,-9.91437 21.46478,-13.88071 34.193,-37.46248 8.61428,-15.95983 12.76177,-17.82759 42.29965,-19.04907 l 25.22749,-1.04324 14.41049,-9.3891 c 12.71549,-8.28474 15.7717,-9.38609 25.98322,-9.36346 10.19457,0.0226 13.42983,1.20283 27.16729,9.91072 l 15.59453,9.88508 h 20.46403 c 30.29021,0 37.02596,4.08902 50.24784,30.50361 6.22314,12.43254 14.04007,19.56324 30.62217,27.93385 21.05739,10.62974 23.92588,16.28498 22.97251,45.29041 -0.52243,15.89444 2.12614,24.29993 13.24432,42.03233 11.95903,19.07349 11.83369,27.33596 -0.73312,48.32516 l -9.34292,15.60465 -1.0976,25.41721 c -1.32078,30.58524 -2.83912,33.35602 -24.73072,45.13101 -17.95754,9.65894 -23.30405,15.0557 -33.40614,33.71997 -11.42141,21.10176 -14.50221,22.79516 -43.76688,24.05676 -14.91303,0.6429 -26.38916,2.16655 -29.58173,3.92746 -2.86889,1.5824 -10.38018,5.9432 -16.69174,9.69073 -14.34782,8.51905 -19.98774,9.74777 -29.21055,6.36381 z m 25.45653,-109.96681 c 30.77674,-6.53014 53.17535,-28.55122 61.30066,-60.26743 4.13467,-16.13919 3.01012,-31.65551 -3.57354,-49.30697 -6.365,-17.06519 -27.22446,-37.92465 -44.28964,-44.28964 -32.51726,-12.12832 -64.65006,-5.32509 -88.76965,18.79449 -37.34576,37.34576 -26.67211,104.03885 20.47401,127.9296 18.33549,9.29131 34.68798,11.41963 54.85816,7.13995 z"
       id="path5281"
       transform="scale(0.26458333)" /><path
       style="fill:#d3c145;fill-opacity:1;stroke-width:2.08647"
       d="m 349.48336,463.5916 c -15.89943,-4.60154 -25.64449,-10.24351 -36.59374,-21.18618 -30.82495,-30.80646 -30.94008,-79.74622 -0.25977,-110.42653 45.29226,-45.29226 120.39641,-21.50798 132.90855,42.09 8.65765,44.00601 -26.47233,88.31993 -72.38633,91.3101 -8.40242,0.54721 -18.14396,-0.18844 -23.66871,-1.78739 z"
       id="path6732"
       transform="scale(0.26458333)" /></g></svg>
