<?xml version="1.0" encoding="UTF-8" standalone="no"?>
<!-- Created with Inkscape (http://www.inkscape.org/) -->

<svg
   version="1.1"
   id="svg1994"
   xml:space="preserve"
   width="237.60751"
   height="285.07089"
   xmlns:inkscape="http://www.inkscape.org/namespaces/inkscape"
   xmlns:sodipodi="http://sodipodi.sourceforge.net/DTD/sodipodi-0.dtd"
   xmlns="http://www.w3.org/2000/svg"
   xmlns:svg="http://www.w3.org/2000/svg"><defs
     id="defs1998" /><sodipodi:namedview
     id="namedview1996"
     pagecolor="#ffffff"
     bordercolor="#000000"
     borderopacity="0.25"
     inkscape:showpageshadow="2"
     inkscape:pageopacity="0.0"
     inkscape:pagecheckerboard="0"
     inkscape:deskcolor="#d1d1d1" /><inkscape:clipboard
     min="266.88462,426.15889"
     max="504.49213,711.22979"
     geom-min="266.88462,426.15889"
     geom-max="504.49213,711.22979" /><g
     id="g2000"
     transform="matrix(3.7795276,0,0,3.7795276,-266.88462,-426.1589)"><path
       fill="#f9c105"
       d="m 98.362965,130.33037 c 0.251875,-0.095 0.597609,-0.12594 0.817405,0 0.0594,0.0356 0.125937,0.095 0.09505,0.15682 v 0.0594 h 0.03564 c -0.0594,0.1889 -0.377813,0.15683 -0.53464,0.21979 -0.156828,0.0594 -0.282765,0.2198 -0.439593,0.2198 -0.156827,0 -0.408702,-0.0594 -0.439593,-0.2198 -0.03564,-0.21979 0.282766,-0.43959 0.471672,-0.43959 z m 3.206415,0.43959 c -0.15683,-0.0594 -0.47167,-0.0356 -0.50256,-0.2198 v -0.0594 c -0.0357,-0.0594 0.0356,-0.12594 0.0594,-0.15683 0.25188,-0.12594 0.59761,-0.0951 0.8483,0 0.1889,0 0.50256,0.2198 0.47167,0.43959 -0.0357,0.15683 -0.28277,0.18891 -0.4396,0.18891 -0.15682,0 -0.28276,-0.12594 -0.43959,-0.18891 z m -5.532573,4.5581 c 0.943342,0.6285 2.168974,1.47739 3.709331,1.47739 1.540352,0 3.363482,-0.8483 4.463762,-1.47739 0.59761,-0.4087 1.41454,-1.0372 2.04328,-1.47751 0.50256,-0.4087 0.47167,-0.8174 0.91126,-0.8174 0.4087,0.0356 0.0951,0.4087 -0.47167,1.0372 -0.59761,0.4087 -1.47739,1.0372 -2.20046,1.47739 -1.38317,0.6285 -3.01774,1.66605 -4.746648,1.66605 -1.697421,0 -3.080594,-0.84829 -4.055064,-1.47738 -0.502561,-0.40871 -0.880373,-0.81741 -1.194504,-1.03721 -0.502561,-0.4087 -0.440781,-1.0372 -0.219796,-1.0372 0.345733,0.0357 0.408702,0.40871 0.628498,0.6285 0.314844,0.18891 0.691468,0.6285 1.131061,1.0372 z"
       id="path9"
       style="stroke-width:3.14348" /><path
       d="m 102.44951,130.77043 c -0.0356,0.15683 -0.28276,0.18891 -0.43959,0.18891 -0.15683,0 -0.28276,-0.12594 -0.43959,-0.18891 -0.15683,-0.0594 -0.47167,-0.0356 -0.50256,-0.21979 v -0.0594 c -0.0356,-0.0594 0.0356,-0.12593 0.0594,-0.15682 0.25188,-0.12594 0.59761,-0.095 0.8483,0 0.1889,0 0.50256,0.21979 0.47167,0.43959 z"
       id="path11"
       style="stroke-width:3.14348" /><path
       d="m 116.59525,147.27381 v 2.89193 h -1.72891 c 0.81741,1.50887 2.10613,4.11803 2.92341,7.35581 0.15683,0.56553 0.28277,1.16314 0.40871,1.79176 0.47167,-0.0357 1.0372,0.0594 1.63469,0.1889 0.25187,-0.66058 0.4087,-1.3202 0.50256,-1.9803 0.59761,-4.36944 -2.16898,-8.64465 -3.7407,-10.24774 z m 0,0 v 2.89193 h -1.72891 c 0.81741,1.50887 2.10613,4.11803 2.92341,7.35581 0.15683,0.56553 0.28277,1.16314 0.40871,1.79176 0.47167,-0.0357 1.0372,0.0594 1.63469,0.1889 0.25187,-0.66058 0.4087,-1.3202 0.50256,-1.9803 0.59761,-4.36944 -2.16898,-8.64465 -3.7407,-10.24774 z m 14.61717,25.05346 v -0.28277 l -0.0356,-0.0356 c -0.53464,-0.6285 -0.78533,-1.66594 -1.06809,-2.89193 -0.25188,-1.25735 -0.56553,-2.48334 -1.57185,-3.30062 -0.1889,-0.15683 -0.37662,-0.18891 -0.5976,-0.40871 -0.18891,-0.12593 -0.37782,-0.1889 -0.59761,-0.21979 0.88037,-2.57768 0.97423,-5.18672 0.53464,-7.67006 -0.2198,-1.35169 -0.59761,-2.67201 -1.10017,-3.92937 -1.69754,-4.43228 -4.65244,-8.29879 -6.91575,-10.93932 -1.16313,-1.47751 -2.35752,-2.95489 -3.26914,-4.52662 -1.0372,-1.79175 -1.72891,-3.70933 -1.69754,-6.06697 0.0594,-4.36943 0.34573,-11.19072 -2.73486,-15.43446 -1.63457,-2.29479 -4.30646,-3.86651 -8.51883,-3.86651 -0.50256,0 -1.00631,0.0356 -1.54024,0.0594 -3.992214,0.31485 -6.475556,1.76039 -8.015913,3.80367 -3.614996,4.77802 -1.917574,12.69959 -2.043274,16.00034 -0.251875,3.42633 -0.943342,6.12971 -3.332112,9.4933 -0.974233,1.13225 -2.106125,2.51483 -3.206294,4.08655 -2.106125,2.9549 -4.212249,6.47556 -5.438237,10.12204 -0.785326,2.35752 -1.225988,4.77801 -1.006311,7.10417 0.03564,0.2198 0.0594,0.47167 0.09505,0.72355 -0.125937,0.095 -0.251875,0.21979 -0.345734,0.4087 -0.848295,0.8483 -1.446022,1.88609 -2.106124,2.64053 -0.660577,0.6285 -1.540356,0.84829 -2.546311,1.25747 -1.00631,0.43959 -2.106124,0.84829 -2.73486,2.13749 -0.313655,0.59761 -0.439593,1.25747 -0.439593,1.88609 0,0.6285 0.09505,1.28884 0.188906,1.69754 0.188906,1.25735 0.376624,2.29467 0.125938,3.04911 -0.785327,2.13761 -0.880374,3.61511 -0.345734,4.6838 0.56553,1.0372 1.697422,1.44602 2.98626,1.88609 2.577676,0.6285 6.066973,0.4087 8.833199,1.88609 2.92341,1.44602 5.941154,2.10612 8.298797,1.47751 1.697422,-0.37781 3.112078,-1.47751 3.866515,-2.98638 0.156827,0 0.282765,0 0.439592,-0.0356 1.760391,-0.095 3.709331,-0.81741 6.72707,-1.00632 0.8483,-0.0594 1.76027,0.0356 2.76623,0.15683 1.6032,0.25188 3.42644,0.59761 5.43823,0.47167 0.0594,0.40871 0.18891,0.59761 0.34574,1.0372 h 0.0356 c 1.22599,2.45198 3.52066,3.55215 5.97264,3.36348 2.45186,-0.1889 5.06102,-1.66593 7.19851,-4.08643 1.98042,-2.42049 5.34402,-3.42644 7.54436,-4.74665 1.10017,-0.59761 2.01191,-1.44602 2.07476,-2.67201 0.0594,-1.25735 -0.6285,-2.54619 -2.26331,-4.33806 z M 106.7561,127.34411 c -0.12594,-0.40871 -0.31485,-0.6285 -0.56553,-1.03721 -0.28277,-0.21979 -0.53464,-0.43959 -0.8483,-0.43959 h -0.0594 c -0.28277,0 -0.56553,0.0951 -0.81741,0.43959 -0.31484,0.28277 -0.53464,0.6285 -0.66058,1.03721 -0.15682,0.4087 -0.25187,0.8174 -0.28276,1.25735 v 0.0594 c 0,0.28277 0.0356,0.56553 0.0594,0.8483 -0.62849,-0.2198 -1.38317,-0.43959 -1.91757,-0.66058 -0.0356,-0.1889 -0.0594,-0.4087 -0.0594,-0.59761 v -0.0594 c -0.0357,-0.8483 0.12593,-1.66594 0.47167,-2.42037 0.25187,-0.69147 0.72354,-1.28884 1.35168,-1.69754 0.56553,-0.40871 1.22599,-0.6285 1.88609,-0.6285 h 0.0594 c 0.66058,0 1.25747,0.21979 1.85472,0.6285 0.59761,0.43959 1.0372,1.0372 1.38306,1.69754 0.34573,0.78532 0.50256,1.41453 0.53464,2.2633 0,-0.0594 0.0356,-0.12593 0.0356,-0.1889 v 0.31484 c -0.0356,0 -0.0356,-0.0356 -0.0356,-0.0594 0,0.72354 -0.18891,1.47738 -0.47167,2.16897 -0.15683,0.37781 -0.37663,0.75444 -0.69147,1.0372 -0.0951,-0.0594 -0.18891,-0.095 -0.28277,-0.12594 -0.31484,-0.15682 -0.6285,-0.21979 -0.91126,-0.4087 -0.2198,-0.095 -0.43959,-0.1889 -0.69147,-0.21979 0.15683,-0.18891 0.47167,-0.40871 0.59761,-0.6285 0.15683,-0.40871 0.25188,-0.81741 0.28277,-1.25748 v -0.0594 c 0,-0.4087 -0.0594,-0.84829 -0.2198,-1.25735 z m -13.076935,-1.38318 c 0.156827,-0.6285 0.471671,-1.1945 0.911263,-1.69742 0.408703,-0.4087 0.817405,-0.6285 1.320323,-0.6285 h 0.09505 c 0.471671,0 0.880373,0.15683 1.288838,0.4396 0.471671,0.4087 0.848295,0.91126 1.10017,1.44602 0.282765,0.6285 0.439593,1.25735 0.471671,2.10612 0.03564,0.2198 0.03564,0.37781 0.03564,0.53464 0,0.12594 0,0.2198 -0.03564,0.31485 v 0.25187 c -0.09505,0.0356 -0.188906,0.0594 -0.251875,0.0594 -0.502561,0.18891 -0.880373,0.4396 -1.257354,0.6285 0.03564,-0.25187 0.03564,-0.53464 0,-0.8174 v -0.0594 c -0.03564,-0.4087 -0.125937,-0.62849 -0.251874,-1.0372 -0.09505,-0.31484 -0.282765,-0.59761 -0.53464,-0.84829 -0.156828,-0.12594 -0.376624,-0.2198 -0.597609,-0.18891 h -0.0594 c -0.219796,0 -0.408702,0.12594 -0.56553,0.4087 -0.219796,0.25188 -0.345734,0.53464 -0.408702,0.8483 -0.0594,0.34573 -0.09505,0.69147 -0.0594,1.0372 v 0.0594 c 0.03564,0.40871 0.125938,0.6285 0.251875,1.03721 0.156828,0.4087 0.313655,0.62849 0.53464,0.84829 0.03564,0.0356 0.0594,0.0594 0.09505,0.0594 -0.219797,0.1889 -0.345734,0.21979 -0.53464,0.43959 -0.125937,0.095 -0.282765,0.1889 -0.439593,0.21979 -0.314843,-0.4087 -0.597608,-0.8174 -0.848295,-1.28872 -0.314843,-0.66057 -0.471671,-1.35168 -0.502561,-2.07475 -0.0594,-0.72355 0.03564,-1.44603 0.251875,-2.10613 z m 0.345733,6.63274 c 0.691468,-0.43959 1.194504,-0.88037 1.540238,-1.06928 0.314843,-0.21979 0.439593,-0.31365 0.53464,-0.4087 h 0.03564 c 0.53464,-0.66057 1.383173,-1.4775 2.640527,-1.91757 0.439592,-0.095 0.943342,-0.18891 1.508877,-0.18891 1.0372,0 2.32615,0.18891 3.83503,1.25736 0.94334,0.62849 1.66605,0.84829 3.36359,1.47738 0.81741,0.40871 1.28872,0.81741 1.54024,1.25748 v -0.4396 c 0.2198,0.47167 0.2198,1.00631 0.0356,1.47739 -0.37781,1.00631 -1.63469,2.04328 -3.36359,2.67201 -0.88038,0.4087 -1.60309,1.0372 -2.48334,1.44591 -0.88038,0.43959 -1.85461,0.94334 -3.2063,0.84829 -0.502562,0.0356 -0.974233,-0.0356 -1.414658,-0.2198 -0.376624,-0.1889 -0.722357,-0.37781 -1.037201,-0.5976 -0.628498,-0.4396 -1.163138,-1.06928 -1.94894,-1.47739 -1.288838,-0.78533 -1.980424,-1.63469 -2.200458,-2.23195 -0.219796,-0.84829 0,-1.47738 0.628499,-1.88609 z m 0.502562,49.22702 c -0.188906,2.32616 -1.540238,3.58351 -3.583512,4.05506 -2.074759,0.4087 -4.840985,0 -7.638695,-1.44602 -3.049229,-1.69742 -6.727075,-1.47739 -9.053234,-1.91757 -1.194504,-0.18891 -1.94894,-0.6285 -2.326158,-1.25736 -0.345733,-0.6285 -0.345733,-1.88609 0.408703,-3.86651 0.377812,-1.06928 0.09505,-2.38901 -0.09505,-3.52067 -0.156828,-1.25735 -0.251875,-2.23182 0.156827,-2.95489 0.502562,-1.06928 1.257354,-1.25735 2.168974,-1.69742 0.943342,-0.4087 2.043275,-0.6285 2.92341,-1.44602 v -0.0357 c 0.817405,-0.84829 1.414538,-1.88609 2.137609,-2.64052 0.597608,-0.6285 1.194504,-1.0372 2.106124,-1.0372 h 0.03564 c 0.156827,0 0.314843,0 0.502561,0.0356 1.194504,0.1889 2.231824,1.06928 3.237778,2.35764 l 2.892045,5.24957 h 0.03564 c 0.754436,1.66606 2.389008,3.3636 3.77218,5.15535 1.383054,1.88609 2.451858,3.55215 2.326158,4.9352 v 0.0357 z m 10.34207,-2.01191 c -3.11208,0.72355 -6.412706,0.50256 -9.4933,-1.1945 -0.376624,-0.18891 -0.754436,-0.40871 -1.10017,-0.66058 -0.345734,-0.59761 -0.785326,-1.16314 -1.288838,-1.66606 -0.219796,-0.37781 -0.53464,-0.75443 -0.880374,-1.0372 0.597609,0 1.10017,-0.095 1.508873,-0.2198 0.439592,-0.21979 0.817404,-0.5976 0.974232,-1.0372 0.345734,-0.84829 0,-2.20046 -1.10017,-3.67784 -1.10017,-1.44603 -2.954894,-3.11208 -5.65827,-4.77814 -1.037202,-0.66057 -1.823241,-1.35169 -2.420493,-2.10612 -0.597608,-0.72355 -1.006311,-1.47739 -1.257354,-2.26331 -0.502561,-1.69742 -0.439592,-3.42633 -0.03564,-5.18672 0.471671,-2.07464 1.414538,-4.08655 2.326158,-5.81545 0.628499,-1.10017 1.225988,-2.07464 1.728906,-2.86056 0.314843,-0.2198 0.09505,0.37781 -1.22587,2.86056 -0.03564,0.0594 -0.0594,0.12593 -0.09505,0.1889 -1.257472,2.35753 -3.614996,7.85873 -0.376624,12.13383 0.125938,-3.11208 0.817405,-6.19267 2.043275,-9.05323 0.408702,-0.94335 0.943342,-2.04328 1.508872,-3.26927 1.854606,-3.92936 4.117914,-9.02174 4.337948,-13.29696 0.156828,0.12594 0.691467,0.43959 0.911264,0.6285 0.691467,0.43959 1.225988,1.06928 1.88609,1.4775 0.660577,0.6285 1.508872,1.03721 2.79771,1.03721 0.125935,0.0356 0.219795,0.0356 0.345735,0.0356 1.28884,0 2.32616,-0.4087 3.17493,-0.8483 0.91126,-0.4087 1.63469,-1.0372 2.32628,-1.25747 h 0.0356 c 1.47739,-0.4087 2.64041,-1.25735 3.33199,-2.20046 1.13225,4.46377 3.80367,10.93932 5.50109,14.08289 0.0594,0.095 0.12594,0.21979 0.1889,0.34573 0.81741,1.50887 2.10613,4.11803 2.92341,7.35581 0.15683,0.56553 0.28277,1.16314 0.40871,1.79176 0.47167,-0.0356 1.0372,0.0594 1.63469,0.1889 0.25187,-0.66057 0.4087,-1.3202 0.50256,-1.9803 0.59761,-4.36943 -2.16898,-8.64465 -3.7407,-10.24774 -0.095,-0.0594 -0.1889,-0.15683 -0.25187,-0.21979 -0.69147,-0.6285 -0.72236,-1.06928 -0.37663,-1.06928 0.2198,0.1889 0.40871,0.37781 0.6285,0.5976 1.76027,1.82325 3.80355,4.74666 4.58947,8.07877 0.25187,0.91126 0.37662,1.88609 0.37662,2.86056 0,0.78532 -0.095,1.6032 -0.28276,2.38901 0.1889,0.095 0.4087,0.1889 0.6285,0.21979 3.30074,1.66606 4.49525,2.92341 3.92936,4.8095 v -0.12593 h -0.6285 c 0.47167,-1.47739 -0.56553,-2.60905 -3.39496,-3.83503 -2.89204,-1.25736 -5.2182,-1.06928 -5.6269,1.44602 -0.0357,0.12593 -0.0357,0.21979 -0.0594,0.43959 -0.2198,0.0594 -0.43959,0.15683 -0.66058,0.18891 -1.35168,0.84829 -2.10612,2.10612 -2.51482,3.74081 -0.40871,1.66606 -0.53464,3.615 -0.66058,5.87831 -0.0594,1.0372 -0.53464,2.64052 -1.00631,4.24373 -1.91746,1.35169 -4.08655,2.38901 -6.41271,2.89192 z m 26.0909,-1.60309 c -1.98031,1.25736 -5.53246,2.23183 -7.79576,4.9352 -1.98043,2.32616 -4.36944,3.58363 -6.47568,3.74082 -2.10612,0.15682 -3.92925,-0.6285 -4.99805,-2.8292 h -0.0356 c -0.66058,-1.25735 -0.37663,-3.23778 0.1889,-5.31253 0.56553,-2.10613 1.35169,-4.24362 1.47739,-5.97252 0.0951,-2.23195 0.2198,-4.18089 0.59761,-5.68976 0.4087,-1.47739 1.00631,-2.51483 2.04327,-3.11208 l 0.15683,-0.0594 c 0.0951,1.88609 1.06928,3.898 2.79771,4.33806 1.85461,0.40871 4.55798,-1.06928 5.68964,-2.42049 l 0.66058,-0.0356 c 1.00631,-0.0356 1.8546,0.0356 2.70337,0.84829 0.66058,0.6285 0.97423,1.66606 1.25736,2.76623 0.28276,1.25735 0.50256,2.45198 1.28883,3.33211 1.57173,1.66606 2.07476,2.86056 2.04328,3.58351 -0.0594,0.8483 -0.59761,1.25748 -1.60321,1.88609 z m -14.36566,-30.93188 v 2.89193 h -1.7289 c 0.8174,1.50887 2.10612,4.11803 2.92341,7.35581 0.15683,0.56553 0.28276,1.16314 0.4087,1.79176 0.47167,-0.0357 1.0372,0.0594 1.63469,0.1889 0.25188,-0.66058 0.4087,-1.3202 0.50256,-1.9803 0.59761,-4.36944 -2.16897,-8.64465 -3.74069,-10.24774 z"
       id="path13"
       style="stroke-width:3.14348" /><path
       fill="#f9c105"
       d="m 109.0194,132.56231 v 0.43959 c -0.25187,-0.43959 -0.72235,-0.84829 -1.54023,-1.25747 -1.69754,-0.6285 -2.4205,-0.8483 -3.3636,-1.47739 -1.50887,-1.06928 -2.79771,-1.25735 -3.83503,-1.25735 -0.56553,0 -1.06928,0.095 -1.508873,0.1889 -1.257353,0.4396 -2.106124,1.25736 -2.640526,1.91758 h -0.03564 c -0.09505,0.095 -0.219797,0.1889 -0.53464,0.4087 -0.345734,0.18891 -0.848295,0.6285 -1.540357,1.06928 -0.628498,0.4087 -0.848295,1.0372 -0.628498,1.88609 0.219796,0.59761 0.911263,1.44602 2.200458,2.23194 0.785326,0.4087 1.320204,1.0372 1.94894,1.47739 0.314843,0.2198 0.660577,0.4087 1.037201,0.59761 0.439593,0.1889 0.911264,0.25187 1.414538,0.21979 1.351687,0.0951 2.326157,-0.4087 3.206407,-0.84829 0.88038,-0.4087 1.60321,-1.0372 2.48335,-1.4459 1.7289,-0.6285 2.98637,-1.66606 3.36359,-2.67201 0.18891,-0.47168 0.18891,-1.00632 -0.0356,-1.47739 z m -7.95294,-2.07476 c -0.0356,-0.0594 0.0356,-0.12594 0.0594,-0.15683 0.25188,-0.12594 0.59761,-0.095 0.8483,0 0.18891,0 0.50256,0.2198 0.47167,0.43959 -0.0356,0.15683 -0.28276,0.18891 -0.43959,0.18891 -0.15683,0 -0.28277,-0.12594 -0.43959,-0.18891 -0.15683,-0.0594 -0.47168,-0.0356 -0.50257,-0.21979 v -0.0594 z m -2.703495,-0.15683 c 0.251875,-0.095 0.597609,-0.12594 0.817405,0 0.0594,0.0356 0.125937,0.095 0.09505,0.15683 v 0.0594 h 0.03564 c -0.0594,0.18891 -0.377813,0.15683 -0.53464,0.2198 -0.156828,0.0594 -0.282765,0.2198 -0.439593,0.2198 -0.156827,0 -0.408702,-0.0594 -0.439593,-0.2198 -0.03564,-0.2198 0.282766,-0.43959 0.471672,-0.43959 z m 8.330285,3.74082 c -0.59761,0.4087 -1.47739,1.0372 -2.20046,1.47738 -1.38317,0.6285 -3.01775,1.66606 -4.746652,1.66606 -1.697422,0 -3.080595,-0.84829 -4.055065,-1.47751 -0.502561,-0.4087 -0.880373,-0.8174 -1.194504,-1.0372 -0.502561,-0.4087 -0.44078,-1.0372 -0.219796,-1.0372 0.345734,0.0357 0.408702,0.4087 0.628499,0.6285 0.314843,0.18891 0.691467,0.6285 1.13106,1.0372 0.943342,0.6285 2.168974,1.47739 3.70933,1.47739 1.540358,0 3.363478,-0.8483 4.463768,-1.47739 0.59761,-0.4087 1.41454,-1.0372 2.04327,-1.4775 0.50256,-0.40871 0.47167,-0.81741 0.91127,-0.81741 0.4087,0.0356 0.095,0.4087 -0.47167,1.0372 z m 25.87086,42.24842 c -0.0594,0.84829 -0.59761,1.25735 -1.60321,1.88609 -1.9803,1.25735 -5.53245,2.23182 -7.79576,4.9352 -1.98042,2.32616 -4.36943,3.58363 -6.47567,3.74081 -2.10613,0.15683 -3.92925,-0.6285 -4.99805,-2.82919 h -0.0356 c -0.66057,-1.25736 -0.37662,-3.23778 0.18891,-5.31254 0.56553,-2.10612 1.35169,-4.24361 1.47739,-5.97252 0.095,-2.23194 0.21979,-4.18088 0.5976,-5.68975 0.40871,-1.47739 1.00632,-2.51483 2.04328,-3.11208 l 0.15683,-0.0594 c 0.095,1.88609 1.06928,3.898 2.79771,4.33807 1.8546,0.4087 4.55798,-1.06928 5.68963,-2.42049 l 0.66058,-0.0356 c 1.00631,-0.0357 1.85461,0.0356 2.70338,0.84829 0.66057,0.6285 0.97423,1.66606 1.25735,2.76623 0.28277,1.25747 0.50256,2.45197 1.28884,3.33211 1.57172,1.66606 2.07476,2.86056 2.04327,3.58363 z m -38.036175,5.4696 v 0.0356 c -0.188906,2.32616 -1.540238,3.58351 -3.583512,4.05507 -2.074759,0.4087 -4.840985,0 -7.638695,-1.44603 -3.049229,-1.69742 -6.727075,-1.47738 -9.053233,-1.91757 -1.194504,-0.18891 -1.94894,-0.6285 -2.326158,-1.25735 -0.345734,-0.6285 -0.345734,-1.88609 0.408702,-3.86652 0.377812,-1.06928 0.09505,-2.38901 -0.09505,-3.52066 -0.156828,-1.25735 -0.251875,-2.23182 0.156828,-2.95489 0.502561,-1.06928 1.257353,-1.25736 2.168974,-1.69743 0.943342,-0.4087 2.043274,-0.6285 2.92341,-1.44602 v -0.0356 c 0.817405,-0.8483 1.414538,-1.88609 2.137608,-2.64053 0.597609,-0.6285 1.194504,-1.0372 2.106124,-1.0372 h 0.03564 c 0.156828,0 0.314843,0 0.502561,0.0356 1.194504,0.18891 2.231824,1.06928 3.237779,2.35765 l 2.892044,5.24956 h 0.03564 c 0.754436,1.66606 2.389008,3.3636 3.77218,5.15536 1.383054,1.88609 2.451858,3.55214 2.326159,4.9352 z"
       id="path15"
       style="stroke-width:3.14348" /><path
       d="m 99.30607,130.5504 c -0.05941,0.18891 -0.377812,0.15683 -0.53464,0.2198 -0.156828,0.0594 -0.282765,0.21979 -0.439593,0.21979 -0.156827,0 -0.408702,-0.0594 -0.439592,-0.21979 -0.03564,-0.2198 0.282765,-0.4396 0.471671,-0.4396 0.251874,-0.095 0.597608,-0.12593 0.817404,0 0.0594,0.0357 0.125938,0.095 0.09505,0.15683 v 0.0594 h 0.03564 z m 7.38718,3.52078 c -0.59761,0.4087 -1.47739,1.0372 -2.20046,1.47739 -1.38317,0.6285 -3.01775,1.66605 -4.746652,1.66605 -1.697422,0 -3.080595,-0.84829 -4.055065,-1.4775 -0.502561,-0.4087 -0.880373,-0.81741 -1.194504,-1.0372 -0.502561,-0.40871 -0.44078,-1.0372 -0.219796,-1.0372 0.345734,0.0356 0.408702,0.4087 0.628499,0.62849 0.314843,0.18891 0.691467,0.6285 1.13106,1.03721 0.943342,0.62849 2.168974,1.47738 3.70933,1.47738 1.540358,0 3.363478,-0.84829 4.463768,-1.47738 0.59761,-0.40871 1.41454,-1.03721 2.04327,-1.47751 0.50256,-0.4087 0.47167,-0.81741 0.91127,-0.81741 0.4087,0.0357 0.095,0.40871 -0.47167,1.03721 z"
       id="path17"
       style="stroke-width:3.14348" /><path
       style="fill:#ffffff;fill-opacity:1;stroke-width:2.08647"
       d="m 363.93989,675.1339 c -11.58459,-6.29898 -13.46321,-9.50075 -8.49158,-14.47238 7.5673,-7.5673 1.44493,-17.95496 -20.01698,-33.96231 -13.01603,-9.70799 -17.36131,-17.24794 -16.91108,-29.34418 0.30861,-8.29115 0.39336,-8.41761 1.11819,-1.66847 0.96699,9.00398 4.68702,18.77821 7.1469,18.77821 1.00834,0 1.83858,-2.582 1.84498,-5.73778 0.0184,-9.0912 3.81387,-20.89289 13.7391,-42.72092 5.07459,-11.16026 10.61465,-25.62077 12.31125,-32.13446 1.6966,-6.51369 3.42521,-12.18356 3.84135,-12.5997 0.41615,-0.41615 3.45932,1.36907 6.76261,3.96714 8.22432,6.46853 19.66538,5.75668 34.79372,-2.1648 6.59743,-3.45455 12.34061,-5.66511 12.76261,-4.91238 0.42201,0.75274 2.4347,6.53262 4.47265,12.84419 2.03795,6.31156 8.65073,22.27304 14.69507,35.46995 15.20833,33.20514 15.47327,35.17355 6.07576,45.14105 -8.76116,9.29257 -13.48824,18.9198 -13.48824,27.47033 0,3.28813 -1.04583,11.186 -2.32407,17.55081 -2.18418,10.87584 -2.90629,11.86652 -11.99719,16.45915 -13.33729,6.73787 -35.86754,7.72814 -46.33505,2.03655 z"
       id="path205"
       transform="scale(0.26458333)" /><path
       style="fill:#ffffff;fill-opacity:1;stroke-width:2.08647"
       d="m 354.7812,482.64472 c -0.0732,-6.876 4.04556,-14.28754 7.89162,-14.20075 3.21789,0.0726 6.50273,3.52938 8.60285,9.0531 2.77919,7.30984 0.50133,11.7726 -2.72969,5.34794 -3.67065,-7.29886 -7.3439,-7.12244 -10.6593,0.51196 l -3.02382,6.96297 z"
       id="path1990"
       transform="scale(0.26458333)" /><path
       style="fill:#ffffff;fill-opacity:1;stroke-width:2.08647"
       d="m 406.19709,494.17648 c -0.78228,-0.78228 -1.42233,-4.43707 -1.42233,-8.12175 0,-12.00528 -10.9264,-15.32475 -13.72606,-4.17001 -1.79384,7.14723 -5.05215,6.74059 -5.05215,-0.63051 0,-6.85022 5.63644,-12.84219 12.0802,-12.84219 6.32136,0 12.9632,7.97523 12.92546,15.52032 -0.0352,7.03601 -2.58253,12.46673 -4.80512,10.24414 z"
       id="path1992"
       transform="scale(0.26458333)" /></g></svg>
