<?xml version="1.0" encoding="UTF-8" standalone="no"?>
<!-- Created with Inkscape (http://www.inkscape.org/) -->

<svg
   version="1.1"
   id="svg5072"
   xml:space="preserve"
   width="511.95105"
   height="512.00006"
   xmlns:inkscape="http://www.inkscape.org/namespaces/inkscape"
   xmlns:sodipodi="http://sodipodi.sourceforge.net/DTD/sodipodi-0.dtd"
   xmlns="http://www.w3.org/2000/svg"
   xmlns:svg="http://www.w3.org/2000/svg"><defs
     id="defs5076" /><sodipodi:namedview
     id="namedview5074"
     pagecolor="#ffffff"
     bordercolor="#000000"
     borderopacity="0.25"
     inkscape:showpageshadow="2"
     inkscape:pageopacity="0.0"
     inkscape:pagecheckerboard="0"
     inkscape:deskcolor="#d1d1d1" /><inkscape:clipboard
     min="128.87077,268.70039"
     max="640.8218,780.70042"
     geom-min="128.87077,268.70039"
     geom-max="640.8218,780.70042" /><g
     id="g5078"
     transform="matrix(3.7795276,0,0,3.7795276,-128.87077,-268.70039)"><path
       d="M 93.283134,105.70114 73.545214,73.149457 c -0.52916,-1.275556 -1.905,-2.055812 -3.38666,-2.055812 h -31.82144 c -3.42636,0 -5.4319,3.857625 -3.46604,6.662208 l 29.44812,42.042297 c 7.85019,-7.32367 17.85144,-12.37721 28.96394,-14.09701 z m 8.546046,7.72584 c -25.730734,0 -46.566676,20.83594 -46.566676,46.56667 0,25.73073 20.849171,46.56667 46.566676,46.56667 25.7175,0 46.56666,-20.83594 46.56666,-46.56667 0,-25.73073 -20.82271,-46.56667 -46.56666,-46.56667 z m 24.47395,41.61896 -10.02241,9.78958 2.34817,13.82448 c 0.42995,2.4474 -2.18281,4.36563 -4.40002,3.175 l -12.40366,-6.51404 -12.404993,6.50081 c -2.215885,1.19063 -4.828646,-0.7276 -4.400021,-3.175 l 2.348177,-13.82448 -10.022416,-9.78958 c -1.816365,-1.75948 -0.78449,-4.82865 1.702593,-5.19906 l 13.858875,-2.01745 6.196542,-12.5611 c 0.529167,-1.12448 1.620573,-1.68671 2.711983,-1.68671 1.0914,0 2.18281,0.57546 2.71198,1.68671 l 6.2177,12.56771 13.85888,2.01745 c 2.51883,0.3638 3.52425,3.43297 1.69862,5.20568 z M 165.09105,71.093645 H 133.4998 c -1.48722,0 -2.86544,0.780256 -3.63008,2.055812 l -19.51567,32.305623 c 11.1125,1.71979 21.13492,6.77863 28.97187,14.12346 l 29.44813,-42.042291 c 1.97908,-2.584979 -0.0317,-6.442604 -3.683,-6.442604 z"
       id="path4889"
       style="stroke-width:0.264583" /><path
       style="fill:#e8463a;fill-opacity:1;stroke-width:2.08647"
       d="m 186.21725,369.50598 c -36.15147,-51.81134 -55.81301,-81.79434 -55.81301,-85.11243 0,-2.81748 2.17306,-7.16418 4.82903,-9.65933 4.7409,-4.45385 5.99425,-4.53664 68.68279,-4.53664 35.11957,0 65.31237,0.55972 67.09512,1.24383 3.0458,1.16878 79.77253,125.65228 78.17254,126.82924 -0.40899,0.30084 -8.72433,2.60854 -18.47857,5.1282 -23.11072,5.96985 -51.37899,19.69583 -70.92972,34.44074 -8.60107,6.48682 -16.11236,11.76316 -16.69174,11.72518 -0.57938,-0.038 -26.16928,-36.06442 -56.86644,-80.05879 z"
       id="path4898"
       transform="scale(0.26458333)" /><path
       style="fill:#e8463a;fill-opacity:1;stroke-width:2.08647"
       d="m 511.18461,437.81697 c -23.48818,-17.9734 -57.38411,-33.78812 -80.25824,-37.44585 -4.68002,-0.74836 -8.98151,-2.12499 -9.55887,-3.05918 -1.37586,-2.22619 68.92411,-118.71406 74.50946,-123.46304 3.8903,-3.30775 10.42268,-3.65132 69.42326,-3.65132 h 65.12889 l 4.53665,4.82903 c 2.49514,2.65597 4.53663,6.74519 4.53663,9.08716 0,3.55666 -104.10606,155.56747 -111.35241,162.59159 -1.72724,1.67427 -6.27643,-0.70911 -16.96537,-8.88839 z"
       id="path4900"
       transform="scale(0.26458333)" /><path
       style="fill:#e4e7e7;fill-opacity:1;stroke-width:2.08647"
       d="M 355.22966,777.13803 C 296.94683,767.32706 242.23938,721.9568 221.23888,666.01611 c -26.94573,-71.77747 -3.19754,-153.8368 57.83232,-199.83344 81.7538,-61.61575 196.40354,-41.82902 252.18755,43.52357 45.24433,69.22627 35.7755,158.01639 -23.20384,217.58447 -26.74334,27.0103 -57.6041,43.22681 -94.79586,49.8127 -14.07653,2.49267 -43.32355,2.51011 -58.02939,0.0346 z m 4.87247,-100.17268 25.15988,-12.61226 24.01266,12.61226 c 13.20696,6.93674 26.13674,12.61226 28.73282,12.61226 2.59609,0 6.41669,-1.87463 8.4902,-4.16582 3.63974,-4.02189 3.60765,-5.14888 -0.929,-32.61462 l -4.69904,-28.44877 20.03059,-20.10604 c 16.71177,-16.77471 20.03059,-21.18104 20.03059,-26.59424 0,-3.56852 -1.47039,-7.70855 -3.26757,-9.20006 -2.57241,-2.13491 -45.86422,-10.01441 -56.39203,-10.26385 -1.25495,-0.0297 -7.25427,-10.61681 -13.33182,-23.52683 -6.07754,-12.91002 -12.47284,-25.11586 -14.21177,-27.12408 -4.56484,-5.27179 -13.96836,-4.63509 -18.53361,1.2549 -2.7784,3.58461 -23.9847,45.39727 -24.70417,48.70943 -0.0491,0.22589 -12.18528,2.07734 -26.96935,4.11432 -29.24697,4.02972 -35.06633,6.71262 -35.06633,16.1666 0,4.58871 4.2986,10.149 20.13585,26.0459 l 20.13585,20.21169 -4.64737,28.4901 c -4.53184,27.78178 -4.55107,28.59653 -0.77346,32.77073 2.13065,2.35435 5.62065,4.28064 7.75556,4.28064 2.1349,0 15.20359,-5.67552 29.04152,-12.61226 z"
       id="path4971"
       transform="scale(0.26458333)" /><path
       style="fill:#cdcfcf;fill-opacity:1;stroke-width:2.08647"
       d="m 325.5295,683.36298 c -3.59497,-3.97239 -3.55429,-5.19421 1.07799,-32.37895 l 4.81393,-28.25077 -21.37522,-21.72162 c -19.3044,-19.61725 -21.14584,-22.1502 -19.0076,-26.14555 1.30219,-2.43316 4.42223,-5.28472 6.93342,-6.33681 3.86616,-1.61976 45.39964,-8.31267 51.58508,-8.31267 1.11863,0 7.89731,-11.77634 15.06373,-26.16965 18.86898,-37.89718 21.68514,-37.79199 41.40501,1.54666 6.78872,13.54264 13.04007,24.61641 13.89189,24.60837 0.85182,-0.008 12.34624,1.50164 25.54315,3.35483 40.86321,5.73825 42.19733,9.646 13.22256,38.7299 l -20.16092,20.23686 4.70087,28.45994 c 4.47813,27.11148 4.52832,28.65059 1.05933,32.48378 -2.00284,2.21311 -4.99311,4.02385 -6.64505,4.02385 -1.65194,0 -14.18547,-5.8682 -27.8523,-13.04043 l -24.84879,-13.04042 -25.55086,13.12483 c -14.05298,7.21865 -26.57899,13.08684 -27.83558,13.04042 -1.25659,-0.0464 -3.96588,-1.94208 -6.02064,-4.21257 z"
       id="path5001"
       transform="scale(0.26458333)" /></g></svg>
