<?xml version="1.0" encoding="UTF-8" standalone="no"?>
<!-- Created with Inkscape (http://www.inkscape.org/) -->

<svg
   version="1.1"
   id="svg16497"
   xml:space="preserve"
   width="447.99997"
   height="448"
   xmlns:inkscape="http://www.inkscape.org/namespaces/inkscape"
   xmlns:sodipodi="http://sodipodi.sourceforge.net/DTD/sodipodi-0.dtd"
   xmlns="http://www.w3.org/2000/svg"
   xmlns:svg="http://www.w3.org/2000/svg"><defs
     id="defs16501" /><sodipodi:namedview
     id="namedview16499"
     pagecolor="#ffffff"
     bordercolor="#000000"
     borderopacity="0.25"
     inkscape:showpageshadow="2"
     inkscape:pageopacity="0.0"
     inkscape:pagecheckerboard="0"
     inkscape:deskcolor="#d1d1d1" /><inkscape:clipboard
     min="303.87637,322.65457"
     max="751.87634,770.65457"
     geom-min="303.87637,322.65457"
     geom-max="751.87634,770.65457" /><g
     id="g16503"
     transform="matrix(3.7795276,0,0,3.7795276,-303.87638,-322.65457)"><g
       id="g8923"
       transform="translate(33.122679,0.55204473)"><g
         id="g8915"><path
           d="M 153.11127,84.816976 H 59.977945 c -7.011459,0 -12.7,5.688542 -12.7,12.700001 v 93.133333 c 0,7.01146 5.688541,12.7 12.7,12.7 h 93.133325 c 7.01146,0 12.7,-5.68854 12.7,-12.7 V 97.516977 c 0,-7.011459 -5.68854,-12.700001 -12.7,-12.700001 z M 120.6469,186.3376 c -2.2225,0.39688 -3.04271,-0.97896 -3.04271,-2.11667 0,-1.42875 0.0529,-8.73125 0.0529,-14.63145 0,-4.1275 -1.37583,-6.74688 -2.98979,-8.12271 9.78959,-1.08479 20.10834,-2.43417 20.10834,-19.34104 0,-4.81542 -1.7198,-7.22313 -4.52438,-10.31875 0.44979,-1.13771 1.95792,-5.82084 -0.44979,-11.90625 -3.67771,-1.13771 -12.09146,4.73604 -12.09146,4.73604 -3.4925,-0.97896 -7.27604,-1.48167 -11.00667,-1.48167 -3.73062,0 -7.514162,0.50271 -11.006662,1.48167 0,0 -8.41375,-5.87375 -12.091458,-4.73604 -2.407712,6.05895 -0.926045,10.74208 -0.449795,11.90625 -2.804583,3.09562 -4.1275,5.50333 -4.1275,10.31875 0,16.8275 9.868958,18.25625 19.658542,19.34104 -1.27,1.13771 -2.407709,3.09562 -2.804584,5.90021 -2.513541,1.1377 -8.942916,3.09562 -12.779375,-3.67771 -2.407708,-4.18042 -6.746875,-4.52438 -6.746875,-4.52438 -4.28625,-0.0529 -0.291041,2.69875 -0.291041,2.69875 2.8575,1.32292 4.868333,6.40292 4.868333,6.40292 2.566458,7.85812 14.843125,5.21229 14.843125,5.21229 0,3.67771 0.05292,9.65729 0.05292,10.74208 0,1.13771 -0.79375,2.51355 -3.042709,2.11667 -17.4625,-5.84729 -29.68625,-22.46312 -29.68625,-41.88354 0,-24.28875 18.57375,-42.73021 42.862499,-42.73021 24.28875,0 43.97374,18.44146 43.97374,42.73021 0.0265,19.42042 -11.82686,36.06271 -29.28936,41.88354 z M 94.691278,170.17156 c -0.502708,0.10583 -0.978958,-0.10583 -1.031875,-0.44979 -0.05292,-0.39688 0.291042,-0.74084 0.79375,-0.84667 0.502709,-0.0529 0.978959,0.15875 1.031875,0.50271 0.07938,0.34396 -0.264583,0.68792 -0.79375,0.79375 z m -2.513541,-0.23813 c 0,0.34396 -0.396875,0.635 -0.926042,0.635 -0.582083,0.0529 -0.978958,-0.23812 -0.978958,-0.635 0,-0.34395 0.396875,-0.635 0.926041,-0.635 0.502709,-0.0529 0.978959,0.23813 0.978959,0.635 z m -3.624792,-0.29104 c -0.105833,0.34396 -0.635,0.50271 -1.084792,0.34396 -0.502708,-0.10583 -0.846666,-0.50271 -0.740833,-0.84667 0.105833,-0.34395 0.635,-0.5027 1.084792,-0.39687 0.529166,0.15875 0.873125,0.55562 0.740833,0.89958 z m -3.254375,-1.42875 c -0.238125,0.29104 -0.740833,0.23813 -1.137708,-0.15875 -0.396875,-0.34396 -0.502709,-0.84666 -0.238125,-1.08479 0.238125,-0.29104 0.740833,-0.23812 1.137708,0.15875 0.343958,0.34396 0.47625,0.87313 0.238125,1.08479 z m -2.407708,-2.40771 c -0.238125,0.15875 -0.687917,0 -0.978959,-0.39687 -0.291041,-0.39688 -0.291041,-0.84667 0,-1.03188 0.291042,-0.23812 0.740834,-0.0529 0.978959,0.34396 0.291041,0.39688 0.291041,0.87313 0,1.08479 z m -1.719792,-2.56645 c -0.238125,0.23812 -0.635,0.10583 -0.926042,-0.15875 -0.291041,-0.34396 -0.343958,-0.74084 -0.105833,-0.92605 0.238125,-0.23812 0.635,-0.10583 0.926042,0.15875 0.291041,0.34396 0.343958,0.74084 0.105833,0.92605 z m -1.772708,-1.95792 c -0.105834,0.23812 -0.449792,0.29104 -0.740834,0.10583 -0.343958,-0.15875 -0.502708,-0.44979 -0.396875,-0.68791 0.105834,-0.15875 0.396875,-0.23813 0.740834,-0.10584 0.343958,0.18521 0.502708,0.47625 0.396875,0.68792 z"
           id="path7930"
           style="stroke-width:0.264583" /><path
           style="fill:none;fill-opacity:1;stroke-width:2.08975;stroke-dasharray:none"
           d="m 336.23083,696.8371 c -62.63857,-29.38531 -99.25053,-90.46586 -95.64797,-159.57164 1.3891,-26.64615 5.18231,-41.74621 15.98602,-63.63727 20.38886,-41.31301 56.35936,-70.53211 101.93844,-82.80535 22.74414,-6.12439 61.71372,-6.04676 84.86709,0.16907 46.96364,12.608 84.95141,43.13001 105.44618,84.72275 10.33547,20.97513 14.41871,36.54325 15.98278,60.93736 3.83616,59.83105 -25.32051,117.71637 -75.58256,150.05547 -17.79747,11.45108 -35.88216,18.46367 -39.61863,15.36268 -1.94726,-1.61609 -2.88861,-12.12914 -3.41481,-38.13725 -0.63154,-31.21318 -1.29017,-37.03341 -5.03934,-44.53119 l -4.31285,-8.62508 10.57225,-1.24287 c 39.03105,-4.58845 57.28341,-21.52845 61.77267,-57.3311 2.55353,-20.36478 0.16421,-33.33064 -8.34952,-45.30771 -5.48991,-7.72327 -5.91501,-9.57003 -4.86595,-21.1392 0.64772,-7.14318 0.0311,-17.33829 -1.41248,-23.35606 -2.45187,-10.22052 -2.86316,-10.67943 -9.57119,-10.67943 -4.16549,0 -14.08796,3.64245 -24.45668,8.97781 -14.41315,7.41649 -18.51014,8.68184 -23.55806,7.27591 -12.401,-3.45388 -43.49316,-4.075 -59.57501,-1.19011 -15.51951,2.784 -16.07997,2.73577 -22.95115,-1.97513 -8.60986,-5.90295 -27.3217,-13.08848 -34.08371,-13.08848 -6.90469,0 -9.99373,10.38826 -9.21332,30.98388 0.53281,14.06145 0.005,17.05329 -3.87545,21.98707 -7.4169,9.42907 -9.43041,19.00017 -8.55937,40.68646 0.67516,16.80951 1.78053,22.17561 6.59506,32.01616 9.0727,18.54392 25.47959,28.32547 53.81627,32.08447 9.76335,1.29516 12.50213,3.30826 8.1555,5.99465 -1.11638,0.68996 -3.00141,4.86283 -4.18896,9.27308 -2.36245,8.77345 -5.63615,10.51183 -19.86212,10.54712 -10.74999,0.0267 -19.86688,-5.63441 -27.91697,-17.33484 -7.46797,-10.8543 -22.40411,-19.27502 -30.55864,-17.22836 -2.83891,0.71253 -5.16166,2.16484 -5.16166,3.22735 0,1.06251 4.23242,5.89878 9.40537,10.74725 5.17296,4.84849 11.73779,13.74575 14.58853,19.77172 8.56239,18.0994 21.46452,24.79477 45.19147,23.45146 l 12.19448,-0.69039 -0.004,21.3129 c -0.003,18.93379 -0.4543,21.55398 -4.03957,23.47276 -5.0048,2.67848 -2.69369,3.25768 -20.69234,-5.18592 z"
           id="path8008"
           transform="scale(0.26458333)" /><path
           style="fill:none;fill-opacity:1;stroke-width:2.08975;stroke-dasharray:none"
           d="m 336.23083,696.8371 c -62.63857,-29.38531 -99.25053,-90.46586 -95.64797,-159.57164 1.3891,-26.64615 5.18231,-41.74621 15.98602,-63.63727 20.38886,-41.31301 56.35936,-70.53211 101.93844,-82.80535 22.74414,-6.12439 61.71372,-6.04676 84.86709,0.16907 46.96364,12.608 84.95141,43.13001 105.44618,84.72275 10.33547,20.97513 14.41871,36.54325 15.98278,60.93736 3.83616,59.83105 -25.32051,117.71637 -75.58256,150.05547 -17.79747,11.45108 -35.88216,18.46367 -39.61863,15.36268 -1.94726,-1.61609 -2.88861,-12.12914 -3.41481,-38.13725 -0.63154,-31.21318 -1.29017,-37.03341 -5.03934,-44.53119 l -4.31285,-8.62508 10.57225,-1.24287 c 39.03105,-4.58845 57.28341,-21.52845 61.77267,-57.3311 2.55353,-20.36478 0.16421,-33.33064 -8.34952,-45.30771 -5.48991,-7.72327 -5.91501,-9.57003 -4.86595,-21.1392 0.64772,-7.14318 0.0311,-17.33829 -1.41248,-23.35606 -2.45187,-10.22052 -2.86316,-10.67943 -9.57119,-10.67943 -4.16549,0 -14.08796,3.64245 -24.45668,8.97781 -14.41315,7.41649 -18.51014,8.68184 -23.55806,7.27591 -12.401,-3.45388 -43.49316,-4.075 -59.57501,-1.19011 -15.51951,2.784 -16.07997,2.73577 -22.95115,-1.97513 -8.60986,-5.90295 -27.3217,-13.08848 -34.08371,-13.08848 -6.90469,0 -9.99373,10.38826 -9.21332,30.98388 0.53281,14.06145 0.005,17.05329 -3.87545,21.98707 -7.4169,9.42907 -9.43041,19.00017 -8.55937,40.68646 0.67516,16.80951 1.78053,22.17561 6.59506,32.01616 9.0727,18.54392 25.47959,28.32547 53.81627,32.08447 9.76335,1.29516 12.50213,3.30826 8.1555,5.99465 -1.11638,0.68996 -3.00141,4.86283 -4.18896,9.27308 -2.36245,8.77345 -5.63615,10.51183 -19.86212,10.54712 -10.74999,0.0267 -19.86688,-5.63441 -27.91697,-17.33484 -7.46797,-10.8543 -22.40411,-19.27502 -30.55864,-17.22836 -2.83891,0.71253 -5.16166,2.16484 -5.16166,3.22735 0,1.06251 4.23242,5.89878 9.40537,10.74725 5.17296,4.84849 11.73779,13.74575 14.58853,19.77172 8.56239,18.0994 21.46452,24.79477 45.19147,23.45146 l 12.19448,-0.69039 -0.004,21.3129 c -0.003,18.93379 -0.4543,21.55398 -4.03957,23.47276 -5.0048,2.67848 -2.69369,3.25768 -20.69234,-5.18592 z"
           id="path8010"
           transform="scale(0.26458333)" /><path
           style="fill:#ffffff;fill-opacity:1;stroke-width:2.08975;stroke-dasharray:none"
           d="m 336.23083,696.8371 c -62.63857,-29.38531 -99.25053,-90.46586 -95.64797,-159.57164 1.3891,-26.64615 5.18231,-41.74621 15.98602,-63.63727 20.38886,-41.31301 56.35936,-70.53211 101.93844,-82.80535 22.74414,-6.12439 61.71372,-6.04676 84.86709,0.16907 46.96364,12.608 84.95141,43.13001 105.44618,84.72275 10.33547,20.97513 14.41871,36.54325 15.98278,60.93736 3.83616,59.83105 -25.32051,117.71637 -75.58256,150.05547 -17.79747,11.45108 -35.88216,18.46367 -39.61863,15.36268 -1.94726,-1.61609 -2.88861,-12.12914 -3.41481,-38.13725 -0.63154,-31.21318 -1.29017,-37.03341 -5.03934,-44.53119 l -4.31285,-8.62508 10.57225,-1.24287 c 39.03105,-4.58845 57.28341,-21.52845 61.77267,-57.3311 2.55353,-20.36478 0.16421,-33.33064 -8.34952,-45.30771 -5.48991,-7.72327 -5.91501,-9.57003 -4.86595,-21.1392 0.64772,-7.14318 0.0311,-17.33829 -1.41248,-23.35606 -2.45187,-10.22052 -2.86316,-10.67943 -9.57119,-10.67943 -4.16549,0 -14.08796,3.64245 -24.45668,8.97781 -14.41315,7.41649 -18.51014,8.68184 -23.55806,7.27591 -12.401,-3.45388 -43.49316,-4.075 -59.57501,-1.19011 -15.51951,2.784 -16.07997,2.73577 -22.95115,-1.97513 -8.60986,-5.90295 -27.3217,-13.08848 -34.08371,-13.08848 -6.90469,0 -9.99373,10.38826 -9.21332,30.98388 0.53281,14.06145 0.005,17.05329 -3.87545,21.98707 -7.4169,9.42907 -9.43041,19.00017 -8.55937,40.68646 0.67516,16.80951 1.78053,22.17561 6.59506,32.01616 9.0727,18.54392 25.47959,28.32547 53.81627,32.08447 9.76335,1.29516 12.50213,3.30826 8.1555,5.99465 -1.11638,0.68996 -3.00141,4.86283 -4.18896,9.27308 -2.36245,8.77345 -5.63615,10.51183 -19.86212,10.54712 -10.74999,0.0267 -19.86688,-5.63441 -27.91697,-17.33484 -7.46797,-10.8543 -22.40411,-19.27502 -30.55864,-17.22836 -2.83891,0.71253 -5.16166,2.16484 -5.16166,3.22735 0,1.06251 4.23242,5.89878 9.40537,10.74725 5.17296,4.84849 11.73779,13.74575 14.58853,19.77172 8.56239,18.0994 21.46452,24.79477 45.19147,23.45146 l 12.19448,-0.69039 -0.004,21.3129 c -0.003,18.93379 -0.4543,21.55398 -4.03957,23.47276 -5.0048,2.67848 -2.69369,3.25768 -20.69234,-5.18592 z"
           id="path8012"
           transform="scale(0.26458333)" /></g></g><path
       style="fill:#707070;fill-opacity:0.278431;stroke-width:2.08975;stroke-dasharray:none"
       d="m 332.67518,764.92804 c -10.41863,-4.73228 -22.39401,-18.35395 -25.62941,-29.15277 -3.4471,-11.50539 -3.4471,-366.73601 0,-378.24139 3.2354,-10.79883 15.21078,-24.42051 25.62941,-29.15279 8.01888,-3.64229 18.24747,-3.8437 195.20118,-3.8437 176.95371,0 187.1823,0.20141 195.20118,3.8437 10.41864,4.73228 22.394,18.35396 25.6294,29.15279 3.4471,11.50538 3.4471,366.736 0,378.24139 -3.2354,10.79882 -15.21076,24.42049 -25.6294,29.15277 -8.01888,3.64228 -18.24747,3.84371 -195.20118,3.84371 -176.95371,0 -187.1823,-0.20134 -195.20118,-3.84371 z M 484.1977,706.19595 c 3.6233,-1.93914 4.03577,-4.56152 4.03577,-25.65813 v -23.49823 l -13.35566,0.85042 c -23.29573,1.48337 -35.15828,-5.02104 -45.10944,-24.7342 -3.49525,-6.92403 -9.78221,-15.10135 -14.56605,-18.94575 -8.87743,-7.13412 -8.59359,-11.36785 0.60731,-9.05857 3.76371,0.94465 5.00447,2.32624 4.13167,4.60074 -1.00294,2.6136 -0.18297,2.98351 4.18396,1.88749 2.98725,-0.74976 6.01378,-0.42085 6.72561,0.73093 0.71183,1.15177 -0.16954,2.09412 -1.9586,2.09412 -1.78906,0 -3.25284,0.96837 -3.25284,2.15194 0,3.33775 6.48895,5.02557 8.26609,2.15009 1.18105,-1.91098 1.90904,-1.7224 2.85364,0.73919 0.69746,1.81756 0.35867,3.30465 -0.75287,3.30465 -1.11154,0 -2.02098,1.4674 -2.02098,3.26086 0,1.85608 1.57297,3.10085 3.65131,2.88942 6.34759,-0.64567 7.36261,0.024 4.77041,3.14744 -1.38686,1.67105 -1.91587,4.01833 -1.17557,5.21617 1.80775,2.925 6.81398,2.77004 7.818,-0.24201 0.60374,-1.81122 1.82823,-1.82718 4.86842,-0.0634 2.23399,1.29603 2.88817,2.38498 1.45372,2.41987 -4.42481,0.10762 -2.8866,6.32283 1.56485,6.32283 2.3183,0 4.17294,-1.39099 4.17294,-3.1297 0,-2.22051 2.273,-3.13799 7.82425,-3.15818 14.24505,-0.052 17.16447,-1.87207 22.99727,-14.33813 3.01455,-6.44284 5.79566,-12.28128 6.18023,-12.9743 0.38457,-0.69304 -4.90061,-1.84538 -11.74485,-2.56074 -38.26919,-3.99991 -58.21243,-23.81115 -60.30173,-59.9026 -1.18448,-20.46109 0.34243,-28.68505 7.2028,-38.79436 4.89789,-7.21744 5.45579,-10.05466 5.68261,-28.89878 0.13833,-11.49259 1.0111,-22.06925 1.93949,-23.5037 3.02545,-4.67458 11.45493,-2.77391 29.45459,6.64139 16.64521,8.7068 18.14775,9.11027 25.61028,6.87702 10.38826,-3.10882 55.71677,-3.05475 66.21657,0.079 7.55954,2.25619 8.97196,1.98896 17.73498,-3.35548 11.27483,-6.87636 25.78991,-12.84998 31.22371,-12.84998 6.75167,0 10.87897,24.25184 6.64171,39.02632 -1.45859,5.0858 -1.18378,7.26094 1.1635,9.209 4.95684,4.11382 12.6915,18.96177 14.11143,27.08927 1.8889,10.81181 -2.26213,36.58766 -7.61982,47.3154 -8.80308,17.62644 -27.38151,28.13863 -54.67137,30.93455 -7.51748,0.77018 -13.66813,1.77816 -13.66813,2.23993 0,0.46178 1.94258,3.46709 4.31688,6.67847 6.54011,8.84598 8.0977,19.16782 8.15214,54.02283 0.049,31.32595 0.13187,31.90073 4.91405,34.07967 9.65119,4.39738 44.16082,-13.91269 66.64835,-35.36216 31.80003,-30.33209 48.47368,-67.67292 50.93988,-114.08047 4.29277,-80.77787 -44.86942,-145.98007 -125.92398,-167.00888 -19.57768,-5.07925 -61.02121,-5.07372 -81.03046,0.0108 -33.12183,8.41653 -65.47571,28.41368 -85.76153,53.00712 -12.5909,15.26453 -26.03139,41.10984 -31.08969,59.78368 -5.38164,19.86756 -6.42736,57.38851 -2.18404,78.36452 11.29584,55.83874 48.1606,101.3286 99.09935,122.28527 13.4306,5.52547 13.69418,5.56296 19.02984,2.70742 z m -10.56951,-61.47739 c 0,-1.73872 -1.85463,-3.12971 -4.17293,-3.12971 -2.3183,0 -4.17294,1.39099 -4.17294,3.12971 0,1.73871 1.85464,3.1297 4.17294,3.1297 2.3183,0 4.17293,-1.39099 4.17293,-3.1297 z m 12.51881,-2.23945 c 0,-1.943 -1.41957,-3.0074 -3.47842,-2.60809 -5.23447,1.01517 -5.9532,5.89077 -0.86839,5.89077 2.56289,0 4.34681,-1.34721 4.34681,-3.28268 z"
       id="path13666"
       transform="scale(0.26458333)" /></g></svg>
