<?xml version="1.0" encoding="iso-8859-1"?>
<!-- Generator: Adobe Illustrator 19.0.0, SVG Export Plug-In . SVG Version: 6.00 Build 0)  -->
<svg version="1.1" id="Capa_1" xmlns="http://www.w3.org/2000/svg" xmlns:xlink="http://www.w3.org/1999/xlink" x="0px" y="0px"
	 viewBox="0 0 400 400" style="enable-background:new 0 0 400 400;" xml:space="preserve">
<g>
	<g>
		<path style="fill:#C3E05E;" d="M400,318.644c0,44.93-35.982,81.356-80.366,81.356H80.366C35.982,400,0,363.574,0,318.644V81.356
			C0,36.423,35.982,0,80.366,0h239.268C364.018,0,400,36.423,400,81.356V318.644z"/>
		<path style="fill:#B4D754;" d="M400,318.644V166.401L250.816,71.847L149.18,307.312L268.336,400h51.298
			C364.018,400,400,363.574,400,318.644z"/>
		<g>
			<g>
				<polygon style="fill:#D66D5D;" points="200,187.579 200,187.579 200,187.579 200,187.579 200,187.579 149.18,195.264 
					180.798,236.086 200,236.086 200,236.086 219.198,236.086 250.816,195.264 				"/>
				<polygon style="opacity:0.33;fill:#D66D5D;enable-background:new    ;" points="200,187.579 200,187.579 200,187.579 
					200,187.579 200,187.579 149.18,195.264 180.798,236.086 200,236.086 200,236.086 219.198,236.086 250.816,195.264 				"/>
				<path style="fill:#938991;" d="M252.885,272.516c0-29.564-23.681-53.533-52.885-53.533s-52.881,23.969-52.881,53.533
					c0,29.568,23.677,53.537,52.881,53.537S252.885,302.084,252.885,272.516z"/>
				<path style="opacity:0.36;fill:#938991;enable-background:new    ;" d="M252.885,272.516c0-29.564-23.681-53.533-52.885-53.533
					s-52.881,23.969-52.881,53.533c0,29.568,23.677,53.537,52.881,53.537S252.885,302.084,252.885,272.516z"/>
				<path style="fill:#5D505B;" d="M200,211.589c-33.654,0-60.938,27.624-60.938,61.692c0,34.069,27.283,61.689,60.938,61.689
					s60.938-27.62,60.938-61.689C260.938,239.213,233.654,211.589,200,211.589z M200,321.522c-26.321,0-47.654-21.6-47.654-48.241
					c0-26.646,21.333-48.24,47.654-48.24c26.317,0,47.653,21.595,47.653,48.24C247.653,299.923,226.317,321.522,200,321.522z"/>
				<path style="fill:#FFFFFF;" d="M230.874,263.993h-22.509l-6.95-21.666c-0.202-0.616-0.77-1.041-1.415-1.041
					s-1.213,0.425-1.415,1.041l-6.954,21.666h-22.505c-0.642,0-1.213,0.425-1.411,1.041c-0.202,0.62,0.017,1.299,0.539,1.682
					l18.207,13.394l-6.955,21.666c-0.202,0.621,0.017,1.299,0.539,1.683c0.522,0.383,1.226,0.383,1.748,0L200,290.064l18.207,13.394
					c0.259,0.191,0.567,0.287,0.872,0.287c0.308,0,0.616-0.096,0.876-0.287c0.521-0.384,0.74-1.062,0.538-1.683l-6.954-21.666
					l18.207-13.394c0.522-0.383,0.74-1.062,0.538-1.682C232.087,264.418,231.516,263.993,230.874,263.993z"/>
				<path style="fill:#D66D5D;" d="M252.885,187.878c0,7.848-6.288,14.209-14.04,14.209h-77.689
					c-7.752,0-14.037-6.361-14.037-14.209V79.244c0-7.848,6.284-14.214,14.037-14.214h77.689c7.752,0,14.04,6.366,14.04,14.214
					V187.878z"/>
				<rect x="161.822" y="65.03" style="fill:#FFFFFF;" width="23.27" height="137.058"/>
				<rect x="214.904" y="65.03" style="fill:#FFFFFF;" width="23.27" height="137.058"/>
			</g>
		</g>
		<path style="opacity:0.28;fill:#534551;enable-background:new    ;" d="M260.938,273.281c0-22.457-11.856-42.108-29.576-52.897
			l17.352-22.403c2.574-2.575,4.172-6.149,4.172-10.103V79.244c0-7.848-6.288-14.214-14.04-14.214h-0.671h-23.27h-14.906v269.941
			H200C233.654,334.971,260.938,307.351,260.938,273.281z"/>
	</g>
</g>
<g>
</g>
<g>
</g>
<g>
</g>
<g>
</g>
<g>
</g>
<g>
</g>
<g>
</g>
<g>
</g>
<g>
</g>
<g>
</g>
<g>
</g>
<g>
</g>
<g>
</g>
<g>
</g>
<g>
</g>
</svg>
