<?xml version="1.0" encoding="UTF-8" standalone="no"?>
<!-- Created with Inkscape (http://www.inkscape.org/) -->

<svg
   version="1.1"
   id="svg1385"
   xml:space="preserve"
   width="229.088"
   height="213.088"
   xmlns:inkscape="http://www.inkscape.org/namespaces/inkscape"
   xmlns:sodipodi="http://sodipodi.sourceforge.net/DTD/sodipodi-0.dtd"
   xmlns:xlink="http://www.w3.org/1999/xlink"
   xmlns="http://www.w3.org/2000/svg"
   xmlns:svg="http://www.w3.org/2000/svg"><defs
     id="defs1389"><filter
       inkscape:collect="always"
       style="color-interpolation-filters:sRGB"
       id="filter1344-4"
       x="-0.011357142"
       width="1.0227143"
       y="-0.012719999"
       height="1.02544"><feGaussianBlur
         inkscape:collect="always"
         stdDeviation="1.06"
         id="feGaussianBlur1346-22" /></filter><filter
       inkscape:collect="always"
       style="color-interpolation-filters:sRGB"
       id="filter959-45"
       x="-0.011357142"
       width="1.0227143"
       y="-0.012230769"
       height="1.0244615"><feGaussianBlur
         inkscape:collect="always"
         stdDeviation="1.06"
         id="feGaussianBlur961-17" /></filter><linearGradient
       inkscape:collect="always"
       xlink:href="#linearGradient36441"
       id="linearGradient13840"
       gradientUnits="userSpaceOnUse"
       gradientTransform="translate(0,2.4e-4)"
       x1="40"
       y1="260"
       x2="264"
       y2="52" /><linearGradient
       inkscape:collect="always"
       id="linearGradient36441"><stop
         style="stop-color:#2c001e;stop-opacity:1"
         offset="0"
         id="stop36437" /><stop
         id="stop36445"
         offset="0.10864977"
         style="stop-color:#2c001e;stop-opacity:1" /><stop
         style="stop-color:#370626;stop-opacity:1"
         offset="0.18689813"
         id="stop36449" /><stop
         id="stop36451"
         offset="0.2980746"
         style="stop-color:#55163b;stop-opacity:1" /><stop
         style="stop-color:#772953;stop-opacity:1"
         offset="0.37246177"
         id="stop36453" /><stop
         style="stop-color:#7c2b51;stop-opacity:1"
         offset="0.44700962"
         id="stop36447" /><stop
         id="stop36455"
         offset="0.52428877"
         style="stop-color:#8b314b;stop-opacity:1" /><stop
         style="stop-color:#8b314b;stop-opacity:1"
         offset="0.59614229"
         id="stop36457" /><stop
         id="stop36459"
         offset="0.66876179"
         style="stop-color:#a33a41;stop-opacity:1" /><stop
         style="stop-color:#c44732;stop-opacity:1"
         offset="0.79755175"
         id="stop36461" /><stop
         id="stop36463"
         offset="0.91251218"
         style="stop-color:#e65524;stop-opacity:1" /><stop
         style="stop-color:#e65524;stop-opacity:1"
         offset="1"
         id="stop36439" /></linearGradient><clipPath
       clipPathUnits="userSpaceOnUse"
       id="clipPath977-5"><path
         id="path979-7"
         d="M 78.994141,52 C 43.625611,52 40,53.999146 40,89.296875 V 140 H 264 V 108.92188 C 264,73.624145 260.37439,68 225.00586,68 H 138 L 122,52 Z"
         style="color:#000000;display:inline;overflow:visible;visibility:visible;fill:#f6531e;fill-opacity:1;fill-rule:nonzero;stroke:none;stroke-width:1;marker:none;enable-background:accumulate"
         inkscape:connector-curvature="0" /></clipPath><filter
       inkscape:collect="always"
       style="color-interpolation-filters:sRGB"
       id="filter989-16"
       x="-0.053571429"
       width="1.1071429"
       y="-0.068181818"
       height="1.1363636"><feGaussianBlur
         inkscape:collect="always"
         stdDeviation="5"
         id="feGaussianBlur991-9" /></filter><linearGradient
       inkscape:collect="always"
       xlink:href="#linearGradient3388"
       id="linearGradient13842"
       gradientUnits="userSpaceOnUse"
       gradientTransform="translate(0,2.4e-4)"
       x1="40"
       y1="84"
       x2="264"
       y2="260" /><linearGradient
       inkscape:collect="always"
       id="linearGradient3388"><stop
         style="stop-color:#666666;stop-opacity:1;"
         offset="0"
         id="stop3384" /><stop
         style="stop-color:#7a7a7a;stop-opacity:1"
         offset="1"
         id="stop3386" /></linearGradient><radialGradient
       inkscape:collect="always"
       xlink:href="#linearGradient1361"
       id="radialGradient3541-3"
       gradientUnits="userSpaceOnUse"
       gradientTransform="matrix(1,0,0,0.26304411,0,60.03336)"
       cx="152"
       cy="-0.12591045"
       fx="152"
       fy="-0.12591045"
       r="112" /><linearGradient
       inkscape:collect="always"
       id="linearGradient1361"><stop
         style="stop-color:#ffffff;stop-opacity:1;"
         offset="0"
         id="stop1357" /><stop
         style="stop-color:#ffffff;stop-opacity:0.20392157"
         offset="1"
         id="stop1359" /></linearGradient><radialGradient
       inkscape:collect="always"
       xlink:href="#linearGradient1361"
       id="radialGradient3543-79"
       gradientUnits="userSpaceOnUse"
       gradientTransform="matrix(1,0,0,0.25411554,0,85.91603)"
       cx="148"
       cy="39.683556"
       fx="148"
       fy="39.683556"
       r="112" /><linearGradient
       inkscape:collect="always"
       id="linearGradient1426"><stop
         style="stop-color:#ffffff;stop-opacity:1;"
         offset="0"
         id="stop1422" /><stop
         style="stop-color:#ffffff;stop-opacity:0.20392157"
         offset="1"
         id="stop1424" /></linearGradient></defs><sodipodi:namedview
     id="namedview1387"
     pagecolor="#505050"
     bordercolor="#eeeeee"
     borderopacity="1"
     inkscape:showpageshadow="0"
     inkscape:pageopacity="0"
     inkscape:pagecheckerboard="0"
     inkscape:deskcolor="#505050" /><inkscape:clipboard
     style="font-variation-settings:normal;opacity:0.2;vector-effect:none;fill:#491706;fill-opacity:1;stroke-width:1;stroke-linecap:butt;stroke-linejoin:miter;stroke-miterlimit:4;stroke-dasharray:none;stroke-dashoffset:0;stroke-opacity:1;-inkscape-stroke:none;stop-color:#000000;stop-opacity:1;stroke:none;marker:none"
     min="37.456,50.45624"
     max="266.54399,263.54423"
     geom-min="40,52.00024"
     geom-max="264,261.00024" /><g
     id="g1428"
     transform="translate(-37.456,-50.45624)"><g
       id="g1383"
       style="display:inline;enable-background:new"><path
         style="color:#000000;display:inline;overflow:visible;visibility:visible;opacity:0.1;fill:#000000;fill-opacity:1;fill-rule:nonzero;stroke:none;stroke-width:1;marker:none;filter:url(#filter1344-4);enable-background:accumulate"
         d="M 78.99414,54.00024 C 43.62561,54.00024 40,55.99939 40,91.29712 v 41.625 9.07812 73.07812 c 0,35.29774 3.62561,38.92188 38.99414,38.92188 H 225.0059 c 35.3685,0 38.9941,-3.62414 38.9941,-38.92188 v -73.07812 -25.07812 -6 C 264,75.62438 260.3744,70.00024 225.0059,70.00024 H 138 l -16,-16 z"
         id="path3459-99"
         inkscape:connector-curvature="0" /><path
         style="color:#000000;display:inline;overflow:visible;visibility:visible;opacity:0.1;fill:#000000;fill-opacity:1;fill-rule:nonzero;stroke:none;stroke-width:1;marker:none;filter:url(#filter959-45);enable-background:accumulate"
         d="M 78.99414,53.00024 C 43.62561,53.00024 40,54.99939 40,90.29712 v 41.625 60.65624 29.5 c 0,35.29774 3.62561,38.92188 38.99414,38.92188 H 225.0059 c 35.3685,0 38.9941,-3.62414 38.9941,-38.92188 v -29.5 -76.65624 -6 C 264,74.62439 260.3744,69.00024 225.0059,69.00024 H 138 l -16,-16 z"
         id="path3465-4"
         inkscape:connector-curvature="0"
         sodipodi:nodetypes="ssccssssccssccs" /><path
         style="color:#000000;display:inline;overflow:visible;visibility:visible;fill:url(#linearGradient13840);fill-opacity:1;fill-rule:nonzero;stroke:none;stroke-width:1;marker:none;enable-background:accumulate"
         d="M 78.99414,52.00024 C 43.62561,52.00024 40,53.99939 40,89.29712 v 50.70312 H 264 V 108.92212 C 264,73.62439 260.3744,68.00024 225.0059,68.00024 H 138 l -16,-16 z"
         id="path3469-9"
         inkscape:connector-curvature="0"
         sodipodi:nodetypes="ssccssccs" /><path
         sodipodi:nodetypes="ssssssssccs"
         style="color:#000000;display:inline;overflow:visible;visibility:visible;opacity:0.5;fill:#903906;fill-opacity:1;fill-rule:nonzero;stroke:none;stroke-width:1;marker:none;filter:url(#filter989-16);enable-background:accumulate"
         d="M 78.99353,92 C 43.625,92 40,95.625 40,130.92273 v 82.15454 C 40,248.375 43.625,252 78.99353,252 H 225.00647 C 260.375,252 264,248.375 264,213.07727 V 114.92273 C 264,79.625 260.375,76 225.00647,76 H 143.75 l -16.00782,16 z"
         id="path3471-90"
         inkscape:connector-curvature="0"
         clip-path="url(#clipPath977-5)"
         transform="translate(0,8.00024)" /><path
         inkscape:connector-curvature="0"
         id="path3473-8"
         d="M 78.99353,100.00024 C 43.625,100.00024 40,103.62524 40,138.92297 v 82.15454 c 0,35.29773 3.625,38.92273 38.99353,38.92273 H 225.0065 c 35.3685,0 38.9935,-3.625 38.9935,-38.92273 V 122.92297 C 264,87.62524 260.375,84.00024 225.0065,84.00024 H 143.75 l -16.00782,16 z"
         style="color:#000000;display:inline;overflow:visible;visibility:visible;fill:url(#linearGradient13842);fill-opacity:1;fill-rule:nonzero;stroke:none;stroke-width:1;marker:none;enable-background:accumulate"
         sodipodi:nodetypes="ssssssssccs" /><path
         style="color:#000000;display:inline;overflow:visible;visibility:visible;opacity:0.4;fill:url(#radialGradient3541-3);fill-opacity:1;fill-rule:nonzero;stroke:none;stroke-width:1;marker:none;enable-background:accumulate"
         d="M 78.99414,52.00024 C 43.62561,52.00024 40,53.99939 40,89.29712 v 2 C 40,55.99939 43.62561,54.00024 78.99414,54.00024 H 122 l 16,16 h 87.0059 c 35.3685,0 38.9941,5.62414 38.9941,40.92188 v -2 C 264,73.62438 260.3744,68.00024 225.0059,68.00024 H 138 l -16,-16 z"
         id="path3475-9"
         inkscape:connector-curvature="0"
         sodipodi:nodetypes="sscsccscssccs" /><path
         style="color:#000000;display:inline;overflow:visible;visibility:visible;opacity:0.4;fill:url(#radialGradient3543-79);fill-opacity:1;fill-rule:nonzero;stroke:none;stroke-width:1;marker:none;enable-background:accumulate"
         d="m 143.75,84.00024 -16.00781,16 H 78.99414 C 43.62561,100.00024 40,103.62439 40,138.92212 v 2 c 0,-35.29773 3.62561,-38.92188 38.99414,-38.92188 h 48.74805 l 16.00781,-16 h 81.2559 c 35.3685,0 38.9941,3.62415 38.9941,38.92188 v -2 c 0,-35.29773 -3.6256,-38.92188 -38.9941,-38.92188 z"
         id="path3477-3"
         inkscape:connector-curvature="0"
         sodipodi:nodetypes="ccsscsccscssc" /><path
         style="color:#000000;display:inline;overflow:visible;visibility:visible;opacity:0.05;fill:#ffffff;fill-opacity:1;fill-rule:nonzero;stroke:none;stroke-width:1;marker:none;enable-background:accumulate"
         d="m 264,194.00024 -64,64 h 25.0059 c 35.3685,0 38.9941,-3.62414 38.9941,-38.92188 z"
         id="path3479-14"
         inkscape:connector-curvature="0"
         sodipodi:nodetypes="ccssc" /><path
         style="color:#000000;display:inline;overflow:visible;visibility:visible;opacity:0.2;fill:#491706;fill-opacity:1;fill-rule:nonzero;stroke:none;stroke-width:1;marker:none;enable-background:accumulate"
         d="m 40,219.07836 v 2 c 0,35.29774 3.62561,38.92188 38.99414,38.92188 H 225.0059 c 35.3685,0 38.9941,-3.62414 38.9941,-38.92188 v -2 c 0,35.29774 -3.6256,38.92188 -38.9941,38.92188 H 78.99414 C 43.62561,258.00024 40,254.3761 40,219.07836 Z"
         id="path3487-7"
         inkscape:connector-curvature="0" /></g></g></svg>
