<?xml version="1.0" encoding="UTF-8" standalone="no"?>
<!-- Created with Inkscape (http://www.inkscape.org/) -->

<svg
   version="1.1"
   id="svg403"
   xml:space="preserve"
   width="164.73006"
   height="164.73006"
   xmlns:inkscape="http://www.inkscape.org/namespaces/inkscape"
   xmlns:sodipodi="http://sodipodi.sourceforge.net/DTD/sodipodi-0.dtd"
   xmlns="http://www.w3.org/2000/svg"
   xmlns:svg="http://www.w3.org/2000/svg"><defs
     id="defs407" /><sodipodi:namedview
     id="namedview405"
     pagecolor="#ffffff"
     bordercolor="#000000"
     borderopacity="0.25"
     inkscape:showpageshadow="2"
     inkscape:pageopacity="0.0"
     inkscape:pagecheckerboard="0"
     inkscape:deskcolor="#d1d1d1" /><inkscape:clipboard
     min="64.566543,481.55553"
     max="229.2966,646.28558"
     geom-min="78.450089,495.43907"
     geom-max="215.41305,632.40203" /><g
     id="g409"
     transform="matrix(3.7795276,0,0,3.7795276,-64.566543,-481.55553)"><circle
       class="st0"
       cx="38.875645"
       cy="149.20398"
       id="circle11"
       r="18.119059"
       style="clip-rule:evenodd;fill:#ffc337;fill-rule:evenodd;stroke:#ffffff;stroke-width:7.34671;stroke-miterlimit:10" /><g
       id="g179"
       transform="matrix(0.79122527,0,0,0.79122527,18.699404,129.186)">
	<path
   class="st1"
   d="m 22.9,39.1 c 0,0.2 -0.2,0.4 -0.5,0.4 -0.2,0 -0.5,-0.2 -0.5,-0.4 0,-0.2 0.2,-0.5 0.5,-0.5 0.3,0 0.5,0.3 0.5,0.5 z"
   id="path13"
   style="clip-rule:evenodd;fill:#231f20;fill-rule:evenodd;stroke:#231f20;stroke-width:0.414;stroke-miterlimit:10" />
	<path
   class="st1"
   d="m 24.4,39 c 0,0.3 -0.2,0.5 -0.5,0.5 -0.3,0 -0.5,-0.2 -0.5,-0.5 0,-0.2 0.2,-0.5 0.5,-0.5 0.3,0.1 0.5,0.3 0.5,0.5 z"
   id="path15"
   style="clip-rule:evenodd;fill:#231f20;fill-rule:evenodd;stroke:#231f20;stroke-width:0.414;stroke-miterlimit:10" />
	<path
   class="st1"
   d="m 25.9,39 c 0,0.3 -0.2,0.5 -0.5,0.5 -0.3,0 -0.5,-0.2 -0.5,-0.5 0,-0.3 0.2,-0.5 0.5,-0.5 0.3,0 0.5,0.2 0.5,0.5 z"
   id="path17"
   style="clip-rule:evenodd;fill:#231f20;fill-rule:evenodd;stroke:#231f20;stroke-width:0.414;stroke-miterlimit:10" />
	<path
   class="st1"
   d="m 27.4,38.9 c 0,0.2 -0.2,0.5 -0.5,0.5 -0.3,0 -0.5,-0.2 -0.5,-0.5 0,-0.2 0.2,-0.5 0.5,-0.5 0.3,0 0.5,0.2 0.5,0.5 z"
   id="path19"
   style="clip-rule:evenodd;fill:#231f20;fill-rule:evenodd;stroke:#231f20;stroke-width:0.414;stroke-miterlimit:10" />
	<path
   class="st1"
   d="m 28.8,38.8 c 0,0.3 -0.2,0.5 -0.5,0.5 -0.3,0 -0.5,-0.2 -0.5,-0.5 0,-0.2 0.2,-0.5 0.5,-0.5 0.3,0 0.5,0.2 0.5,0.5 z"
   id="path21"
   style="clip-rule:evenodd;fill:#231f20;fill-rule:evenodd;stroke:#231f20;stroke-width:0.414;stroke-miterlimit:10" />
	<path
   class="st2"
   d="m 29.9,36.1 c 0,0.6 -0.5,1 -1,1 -0.6,0 -1,-0.5 -1,-1 0,-0.5 0.5,-1 1,-1 0.6,0 1,0.5 1,1 z"
   id="path23"
   style="clip-rule:evenodd;fill:#231f20;fill-rule:evenodd;stroke:#231f20;stroke-width:0.207;stroke-miterlimit:10" />
	<path
   class="st2"
   d="m 30.6,33.6 c 0,0.6 -0.5,1 -1,1 -0.6,0 -1,-0.4 -1,-1 0,-0.6 0.5,-1 1,-1 0.5,0 1,0.4 1,1 z"
   id="path25"
   style="clip-rule:evenodd;fill:#231f20;fill-rule:evenodd;stroke:#231f20;stroke-width:0.207;stroke-miterlimit:10" />
	<path
   class="st2"
   d="m 31.7,31.2 c 0,0.6 -0.5,1 -1,1 -0.6,0 -1,-0.4 -1,-1 0,-0.6 0.5,-1 1,-1 0.7,0.1 1,0.5 1,1 z"
   id="path27"
   style="clip-rule:evenodd;fill:#231f20;fill-rule:evenodd;stroke:#231f20;stroke-width:0.207;stroke-miterlimit:10" />
	<path
   class="st2"
   d="m 33.5,28.9 c 0,0.6 -0.5,1 -1,1 -0.6,0 -1,-0.5 -1,-1 0,-0.5 0.5,-1 1,-1 0.5,0 1,0.5 1,1 z"
   id="path29"
   style="clip-rule:evenodd;fill:#231f20;fill-rule:evenodd;stroke:#231f20;stroke-width:0.207;stroke-miterlimit:10" />
	<path
   class="st2"
   d="m 34.7,26.5 c 0,0.6 -0.5,1 -1,1 -0.6,0 -1,-0.4 -1,-1 0,-0.6 0.5,-1 1,-1 0.6,0 1,0.4 1,1 z"
   id="path31"
   style="clip-rule:evenodd;fill:#231f20;fill-rule:evenodd;stroke:#231f20;stroke-width:0.207;stroke-miterlimit:10" />
	<path
   class="st2"
   d="m 35.5,23.7 c 0,0.6 -0.5,1 -1,1 -0.5,0 -1,-0.5 -1,-1 0,-0.6 0.5,-1 1,-1 0.5,0 1,0.5 1,1 z"
   id="path33"
   style="clip-rule:evenodd;fill:#231f20;fill-rule:evenodd;stroke:#231f20;stroke-width:0.207;stroke-miterlimit:10" />
	<path
   class="st2"
   d="m 35.2,21 c 0,0.6 -0.5,1 -1,1 -0.6,0 -1,-0.4 -1,-1 0,-0.6 0.4,-1 1,-1 0.6,0 1,0.4 1,1 z"
   id="path35"
   style="clip-rule:evenodd;fill:#231f20;fill-rule:evenodd;stroke:#231f20;stroke-width:0.207;stroke-miterlimit:10" />
	<path
   class="st2"
   d="m 34.5,18.5 c 0,0.6 -0.5,1 -1,1 -0.6,0 -1,-0.4 -1,-1 0,-0.6 0.5,-1 1,-1 0.5,0.1 1,0.4 1,1 z"
   id="path37"
   style="clip-rule:evenodd;fill:#231f20;fill-rule:evenodd;stroke:#231f20;stroke-width:0.207;stroke-miterlimit:10" />
	<path
   class="st2"
   d="m 33.1,16.5 c 0,0.6 -0.5,1 -1,1 -0.6,0 -1,-0.5 -1,-1 0,-0.6 0.5,-1 1,-1 0.5,0 1,0.4 1,1 z"
   id="path39"
   style="clip-rule:evenodd;fill:#231f20;fill-rule:evenodd;stroke:#231f20;stroke-width:0.207;stroke-miterlimit:10" />
	<path
   class="st2"
   d="m 31.2,14.8 c 0,0.6 -0.5,1 -1,1 -0.6,0 -1,-0.5 -1,-1 0,-0.6 0.5,-1 1,-1 0.5,0 1,0.5 1,1 z"
   id="path41"
   style="clip-rule:evenodd;fill:#231f20;fill-rule:evenodd;stroke:#231f20;stroke-width:0.207;stroke-miterlimit:10" />
	<path
   class="st2"
   d="m 28.8,13.8 c 0,0.6 -0.5,1 -1,1 -0.6,0 -1,-0.5 -1,-1 0,-0.6 0.5,-1 1,-1 0.5,0 1,0.4 1,1 z"
   id="path43"
   style="clip-rule:evenodd;fill:#231f20;fill-rule:evenodd;stroke:#231f20;stroke-width:0.207;stroke-miterlimit:10" />
	<path
   class="st2"
   d="m 26.4,13.5 c 0,0.6 -0.5,1 -1,1 -0.6,0 -1,-0.4 -1,-1 0,-0.6 0.5,-1 1,-1 0.5,0 1,0.5 1,1 z"
   id="path45"
   style="clip-rule:evenodd;fill:#231f20;fill-rule:evenodd;stroke:#231f20;stroke-width:0.207;stroke-miterlimit:10" />
	<path
   class="st2"
   d="m 24,13.9 c 0,0.6 -0.5,1 -1,1 -0.6,0 -1,-0.4 -1,-1 0,-0.6 0.5,-1 1,-1 0.5,0 1,0.4 1,1 z"
   id="path47"
   style="clip-rule:evenodd;fill:#231f20;fill-rule:evenodd;stroke:#231f20;stroke-width:0.207;stroke-miterlimit:10" />
	<path
   class="st2"
   d="m 21.6,14.9 c 0,0.6 -0.5,1 -1,1 -0.5,0 -1,-0.5 -1,-1 0,-0.6 0.5,-1 1,-1 0.5,0 1,0.5 1,1 z"
   id="path49"
   style="clip-rule:evenodd;fill:#231f20;fill-rule:evenodd;stroke:#231f20;stroke-width:0.207;stroke-miterlimit:10" />
	<path
   class="st2"
   d="m 19.7,16.6 c 0,0.6 -0.5,1 -1,1 -0.6,0 -1,-0.5 -1,-1 0,-0.6 0.4,-1 1,-1 0.5,0 1,0.4 1,1 z"
   id="path51"
   style="clip-rule:evenodd;fill:#231f20;fill-rule:evenodd;stroke:#231f20;stroke-width:0.207;stroke-miterlimit:10" />
	<path
   class="st2"
   d="m 18.3,18.6 c 0,0.6 -0.5,1 -1,1 -0.6,0 -1,-0.5 -1,-1 0,-0.6 0.4,-1 1,-1 0.5,0 1,0.4 1,1 z"
   id="path53"
   style="clip-rule:evenodd;fill:#231f20;fill-rule:evenodd;stroke:#231f20;stroke-width:0.207;stroke-miterlimit:10" />
	<path
   class="st2"
   d="m 17.5,21 c 0,0.6 -0.4,1 -1,1 -0.6,0 -1,-0.5 -1,-1 0,-0.6 0.5,-1 1,-1 0.6,0.1 1,0.6 1,1 z"
   id="path55"
   style="clip-rule:evenodd;fill:#231f20;fill-rule:evenodd;stroke:#231f20;stroke-width:0.207;stroke-miterlimit:10" />
	<path
   class="st2"
   d="m 17.4,23.9 c 0,0.6 -0.5,1 -1,1 -0.6,0 -1,-0.5 -1,-1 0,-0.6 0.5,-1 1,-1 0.5,0 1,0.4 1,1 z"
   id="path57"
   style="clip-rule:evenodd;fill:#231f20;fill-rule:evenodd;stroke:#231f20;stroke-width:0.207;stroke-miterlimit:10" />
	<path
   class="st2"
   d="m 18.2,26.4 c 0,0.6 -0.5,1 -1,1 -0.6,0 -1,-0.4 -1,-1 0,-0.6 0.5,-1 1,-1 0.5,0 1,0.5 1,1 z"
   id="path59"
   style="clip-rule:evenodd;fill:#231f20;fill-rule:evenodd;stroke:#231f20;stroke-width:0.207;stroke-miterlimit:10" />
	<path
   class="st2"
   d="m 19.4,28.9 c 0,0.6 -0.5,1 -1,1 -0.5,0 -1,-0.5 -1,-1 0,-0.6 0.5,-1 1,-1 0.5,0 1,0.4 1,1 z"
   id="path61"
   style="clip-rule:evenodd;fill:#231f20;fill-rule:evenodd;stroke:#231f20;stroke-width:0.207;stroke-miterlimit:10" />
	<path
   class="st2"
   d="m 21.2,31.2 c 0,0.6 -0.5,1 -1,1 -0.6,0 -1,-0.5 -1,-1 0,-0.6 0.5,-1 1,-1 0.5,0 1,0.5 1,1 z"
   id="path63"
   style="clip-rule:evenodd;fill:#231f20;fill-rule:evenodd;stroke:#231f20;stroke-width:0.207;stroke-miterlimit:10" />
	<path
   class="st2"
   d="m 22.3,33.5 c 0,0.6 -0.5,1 -1,1 -0.6,0 -1,-0.5 -1,-1 0,-0.6 0.5,-1 1,-1 0.6,0 1,0.5 1,1 z"
   id="path65"
   style="clip-rule:evenodd;fill:#231f20;fill-rule:evenodd;stroke:#231f20;stroke-width:0.207;stroke-miterlimit:10" />
	<path
   class="st2"
   d="m 23,36.1 c 0,0.6 -0.5,1 -1,1 -0.6,0 -1,-0.5 -1,-1 0,-0.5 0.5,-1 1,-1 0.5,0 1,0.4 1,1 z"
   id="path67"
   style="clip-rule:evenodd;fill:#231f20;fill-rule:evenodd;stroke:#231f20;stroke-width:0.207;stroke-miterlimit:10" />
	<g
   id="g147">
		<path
   class="st1"
   d="m 36.8,31.1 c 0,0.2 -0.2,0.5 -0.5,0.5 -0.3,0 -0.5,-0.2 -0.5,-0.5 0,-0.3 0.2,-0.5 0.5,-0.5 0.3,0.1 0.5,0.3 0.5,0.5 z"
   id="path69"
   style="clip-rule:evenodd;fill:#231f20;fill-rule:evenodd;stroke:#231f20;stroke-width:0.414;stroke-miterlimit:10" />
		<path
   class="st1"
   d="m 38.1,31.8 c 0,0.3 -0.2,0.5 -0.5,0.5 -0.2,0 -0.5,-0.2 -0.5,-0.5 0,-0.2 0.2,-0.5 0.5,-0.5 0.3,0 0.5,0.2 0.5,0.5 z"
   id="path71"
   style="clip-rule:evenodd;fill:#231f20;fill-rule:evenodd;stroke:#231f20;stroke-width:0.414;stroke-miterlimit:10" />
		<path
   class="st1"
   d="m 39.3,32.5 c 0,0.3 -0.2,0.5 -0.5,0.5 -0.2,0 -0.5,-0.2 -0.5,-0.5 0,-0.3 0.2,-0.5 0.5,-0.5 0.3,0.1 0.5,0.3 0.5,0.5 z"
   id="path73"
   style="clip-rule:evenodd;fill:#231f20;fill-rule:evenodd;stroke:#231f20;stroke-width:0.414;stroke-miterlimit:10" />
		<path
   class="st1"
   d="m 38.8,26.9 c 0.1,0.2 0,0.5 -0.3,0.6 -0.2,0.1 -0.5,0 -0.6,-0.3 -0.1,-0.2 0,-0.5 0.3,-0.6 0.3,0 0.5,0.1 0.6,0.3 z"
   id="path75"
   style="clip-rule:evenodd;fill:#231f20;fill-rule:evenodd;stroke:#231f20;stroke-width:0.414;stroke-miterlimit:10" />
		<path
   class="st1"
   d="m 40.3,27.2 c 0.1,0.2 0,0.5 -0.3,0.6 -0.2,0.1 -0.5,0 -0.6,-0.3 -0.1,-0.2 0,-0.5 0.3,-0.6 0.3,-0.1 0.5,0 0.6,0.3 z"
   id="path77"
   style="clip-rule:evenodd;fill:#231f20;fill-rule:evenodd;stroke:#231f20;stroke-width:0.414;stroke-miterlimit:10" />
		<path
   class="st1"
   d="m 39.3,21.1 c 0.1,0.2 0,0.5 -0.3,0.6 -0.2,0.1 -0.5,0 -0.6,-0.3 -0.1,-0.2 0,-0.5 0.3,-0.6 0.3,0.1 0.6,0.2 0.6,0.3 z"
   id="path79"
   style="clip-rule:evenodd;fill:#231f20;fill-rule:evenodd;stroke:#231f20;stroke-width:0.414;stroke-miterlimit:10" />
		<path
   class="st1"
   d="m 40.8,21 c 0.1,0.2 0,0.5 -0.3,0.6 -0.2,0.1 -0.5,0 -0.6,-0.3 -0.1,-0.2 0,-0.5 0.3,-0.6 0.3,-0.1 0.5,0 0.6,0.3 z"
   id="path81"
   style="clip-rule:evenodd;fill:#231f20;fill-rule:evenodd;stroke:#231f20;stroke-width:0.414;stroke-miterlimit:10" />
		<path
   class="st1"
   d="m 42.2,20.7 c 0.1,0.2 0,0.5 -0.3,0.6 -0.2,0.1 -0.5,0 -0.6,-0.3 -0.1,-0.2 0,-0.5 0.3,-0.6 0.2,-0.1 0.5,0.1 0.6,0.3 z"
   id="path83"
   style="clip-rule:evenodd;fill:#231f20;fill-rule:evenodd;stroke:#231f20;stroke-width:0.414;stroke-miterlimit:10" />
		<path
   class="st1"
   d="m 37.9,16 c 0.1,0.2 0,0.5 -0.3,0.6 -0.2,0.1 -0.5,0 -0.6,-0.3 -0.1,-0.2 0,-0.5 0.3,-0.6 0.3,-0.1 0.5,0 0.6,0.3 z"
   id="path85"
   style="clip-rule:evenodd;fill:#231f20;fill-rule:evenodd;stroke:#231f20;stroke-width:0.414;stroke-miterlimit:10" />
		<path
   class="st1"
   d="m 39.1,15.2 c 0.1,0.2 0,0.5 -0.3,0.6 -0.2,0.1 -0.5,0 -0.6,-0.3 -0.1,-0.2 0,-0.5 0.3,-0.6 0.3,0 0.6,0.1 0.6,0.3 z"
   id="path87"
   style="clip-rule:evenodd;fill:#231f20;fill-rule:evenodd;stroke:#231f20;stroke-width:0.414;stroke-miterlimit:10" />
		<path
   class="st1"
   d="m 40.4,14.5 c 0.1,0.2 0,0.5 -0.3,0.6 -0.2,0.1 -0.5,0 -0.6,-0.3 -0.1,-0.2 0,-0.5 0.3,-0.6 0.3,0 0.5,0 0.6,0.3 z"
   id="path89"
   style="clip-rule:evenodd;fill:#231f20;fill-rule:evenodd;stroke:#231f20;stroke-width:0.414;stroke-miterlimit:10" />
		<path
   class="st1"
   d="m 34.9,12 c 0.1,0.2 0,0.5 -0.3,0.6 -0.2,0.1 -0.5,0 -0.6,-0.3 -0.1,-0.2 0,-0.5 0.3,-0.6 0.4,-0.1 0.5,0.1 0.6,0.3 z"
   id="path91"
   style="clip-rule:evenodd;fill:#231f20;fill-rule:evenodd;stroke:#231f20;stroke-width:0.414;stroke-miterlimit:10" />
		<path
   class="st1"
   d="m 35.9,10.9 c 0.1,0.2 0,0.5 -0.3,0.6 -0.2,0.1 -0.5,0 -0.6,-0.3 -0.1,-0.2 0,-0.5 0.3,-0.6 0.3,0 0.5,0.2 0.6,0.3 z"
   id="path93"
   style="clip-rule:evenodd;fill:#231f20;fill-rule:evenodd;stroke:#231f20;stroke-width:0.414;stroke-miterlimit:10" />
		<path
   class="st1"
   d="m 36.9,9.8 c 0.1,0.2 0,0.5 -0.3,0.6 -0.2,0.1 -0.5,0 -0.6,-0.3 -0.1,-0.2 0,-0.5 0.3,-0.6 0.2,0 0.5,0.1 0.6,0.3 z"
   id="path95"
   style="clip-rule:evenodd;fill:#231f20;fill-rule:evenodd;stroke:#231f20;stroke-width:0.414;stroke-miterlimit:10" />
		<path
   class="st1"
   d="m 30.7,9.3 c 0.1,0.2 0,0.5 -0.3,0.6 -0.2,0.1 -0.5,0 -0.6,-0.3 -0.1,-0.2 0,-0.5 0.3,-0.6 0.3,0 0.5,0.1 0.6,0.3 z"
   id="path97"
   style="clip-rule:evenodd;fill:#231f20;fill-rule:evenodd;stroke:#231f20;stroke-width:0.414;stroke-miterlimit:10" />
		<path
   class="st1"
   d="m 31.3,7.9 c 0.1,0.2 0,0.5 -0.3,0.6 -0.2,0.1 -0.5,0 -0.6,-0.3 -0.1,-0.2 0,-0.5 0.3,-0.6 0.2,-0.1 0.5,0.1 0.6,0.3 z"
   id="path99"
   style="clip-rule:evenodd;fill:#231f20;fill-rule:evenodd;stroke:#231f20;stroke-width:0.414;stroke-miterlimit:10" />
		<path
   class="st1"
   d="m 31.7,6.6 c 0.1,0.2 0,0.5 -0.3,0.6 -0.2,0.1 -0.5,0 -0.6,-0.3 -0.1,-0.2 0,-0.5 0.3,-0.6 0.3,0 0.5,0.1 0.6,0.3 z"
   id="path101"
   style="clip-rule:evenodd;fill:#231f20;fill-rule:evenodd;stroke:#231f20;stroke-width:0.414;stroke-miterlimit:10" />
		<path
   class="st1"
   d="m 25.5,8.7 c 0.1,0.2 0,0.5 -0.3,0.6 -0.2,0.1 -0.5,0 -0.6,-0.3 -0.1,-0.2 0,-0.5 0.3,-0.6 0.3,0 0.6,0.1 0.6,0.3 z"
   id="path103"
   style="clip-rule:evenodd;fill:#231f20;fill-rule:evenodd;stroke:#231f20;stroke-width:0.414;stroke-miterlimit:10" />
		<path
   class="st1"
   d="m 25.5,7.3 c 0.1,0.2 0,0.5 -0.3,0.6 -0.2,0.1 -0.5,0 -0.6,-0.3 -0.1,-0.2 0,-0.5 0.3,-0.6 0.3,0 0.6,0.1 0.6,0.3 z"
   id="path105"
   style="clip-rule:evenodd;fill:#231f20;fill-rule:evenodd;stroke:#231f20;stroke-width:0.414;stroke-miterlimit:10" />
		<path
   class="st1"
   d="m 25.5,5.9 c 0.1,0.2 0,0.5 -0.3,0.6 -0.2,0.1 -0.5,0 -0.6,-0.3 -0.1,-0.2 0,-0.5 0.3,-0.6 0.3,-0.1 0.6,0.1 0.6,0.3 z"
   id="path107"
   style="clip-rule:evenodd;fill:#231f20;fill-rule:evenodd;stroke:#231f20;stroke-width:0.414;stroke-miterlimit:10" />
		<path
   class="st1"
   d="m 20.1,7 c 0.1,0.2 0,0.5 -0.3,0.6 -0.2,0.1 -0.5,0 -0.6,-0.3 -0.1,-0.2 0,-0.5 0.3,-0.6 0.3,-0.1 0.6,0 0.6,0.3 z"
   id="path109"
   style="clip-rule:evenodd;fill:#231f20;fill-rule:evenodd;stroke:#231f20;stroke-width:0.414;stroke-miterlimit:10" />
		<path
   class="st1"
   d="m 20.7,8.3 c 0.1,0.2 0,0.5 -0.3,0.6 -0.2,0.1 -0.5,0 -0.6,-0.3 -0.1,-0.2 0,-0.5 0.3,-0.6 0.2,-0.1 0.5,0 0.6,0.3 z"
   id="path111"
   style="clip-rule:evenodd;fill:#231f20;fill-rule:evenodd;stroke:#231f20;stroke-width:0.414;stroke-miterlimit:10" />
		<path
   class="st1"
   d="m 21.2,9.7 c 0.1,0.2 0,0.5 -0.3,0.6 -0.2,0.1 -0.5,0 -0.6,-0.3 -0.1,-0.2 0,-0.5 0.3,-0.6 0.2,-0.1 0.5,0 0.6,0.3 z"
   id="path113"
   style="clip-rule:evenodd;fill:#231f20;fill-rule:evenodd;stroke:#231f20;stroke-width:0.414;stroke-miterlimit:10" />
		<path
   class="st1"
   d="m 15,10.2 c 0.1,0.2 0,0.5 -0.3,0.6 -0.2,0.1 -0.5,0 -0.6,-0.3 -0.1,-0.2 0,-0.5 0.3,-0.6 0.2,-0.1 0.5,0.1 0.6,0.3 z"
   id="path115"
   style="clip-rule:evenodd;fill:#231f20;fill-rule:evenodd;stroke:#231f20;stroke-width:0.414;stroke-miterlimit:10" />
		<path
   class="st1"
   d="m 15.9,11.2 c 0.1,0.2 0,0.5 -0.3,0.6 -0.2,0.1 -0.5,0 -0.6,-0.3 -0.1,-0.2 0,-0.5 0.3,-0.6 0.3,0 0.5,0.1 0.6,0.3 z"
   id="path117"
   style="clip-rule:evenodd;fill:#231f20;fill-rule:evenodd;stroke:#231f20;stroke-width:0.414;stroke-miterlimit:10" />
		<path
   class="st1"
   d="m 16.9,12.4 c 0.1,0.2 0,0.5 -0.3,0.6 -0.2,0.1 -0.5,0 -0.6,-0.3 -0.1,-0.2 0,-0.5 0.3,-0.6 0.2,-0.1 0.5,0.1 0.6,0.3 z"
   id="path119"
   style="clip-rule:evenodd;fill:#231f20;fill-rule:evenodd;stroke:#231f20;stroke-width:0.414;stroke-miterlimit:10" />
		<path
   class="st1"
   d="m 14,16.3 c 0.1,0.2 0,0.5 -0.3,0.6 -0.2,0.1 -0.5,0 -0.6,-0.3 -0.1,-0.2 0,-0.5 0.3,-0.6 0.2,0 0.5,0.1 0.6,0.3 z"
   id="path121"
   style="clip-rule:evenodd;fill:#231f20;fill-rule:evenodd;stroke:#231f20;stroke-width:0.414;stroke-miterlimit:10" />
		<path
   class="st1"
   d="m 12.5,21.5 c 0.1,0.2 0,0.5 -0.3,0.6 -0.2,0.1 -0.5,0 -0.6,-0.3 -0.1,-0.2 0,-0.5 0.3,-0.6 0.2,-0.1 0.5,0 0.6,0.3 z"
   id="path123"
   style="clip-rule:evenodd;fill:#231f20;fill-rule:evenodd;stroke:#231f20;stroke-width:0.414;stroke-miterlimit:10" />
		<path
   class="st1"
   d="m 13,27.3 c 0.1,0.2 0,0.5 -0.3,0.6 -0.2,0.1 -0.5,0 -0.6,-0.3 -0.1,-0.2 0,-0.5 0.3,-0.6 0.3,-0.1 0.5,0 0.6,0.3 z"
   id="path125"
   style="clip-rule:evenodd;fill:#231f20;fill-rule:evenodd;stroke:#231f20;stroke-width:0.414;stroke-miterlimit:10" />
		<path
   class="st1"
   d="m 15,31.2 c 0.1,0.2 0,0.5 -0.3,0.6 -0.2,0.1 -0.5,0 -0.6,-0.3 -0.1,-0.2 0,-0.5 0.3,-0.6 0.3,0.1 0.5,0.2 0.6,0.3 z"
   id="path127"
   style="clip-rule:evenodd;fill:#231f20;fill-rule:evenodd;stroke:#231f20;stroke-width:0.414;stroke-miterlimit:10" />
		<path
   class="st1"
   d="m 13.8,32 c 0.1,0.2 0,0.5 -0.3,0.6 -0.2,0.1 -0.5,0 -0.6,-0.3 -0.1,-0.2 0,-0.5 0.3,-0.6 0.3,-0.1 0.5,0.1 0.6,0.3 z"
   id="path129"
   style="clip-rule:evenodd;fill:#231f20;fill-rule:evenodd;stroke:#231f20;stroke-width:0.414;stroke-miterlimit:10" />
		<path
   class="st1"
   d="m 12.5,32.7 c 0.1,0.2 0,0.5 -0.3,0.6 -0.2,0.1 -0.5,0 -0.6,-0.3 -0.1,-0.2 0,-0.5 0.3,-0.6 0.3,0 0.5,0.1 0.6,0.3 z"
   id="path131"
   style="clip-rule:evenodd;fill:#231f20;fill-rule:evenodd;stroke:#231f20;stroke-width:0.414;stroke-miterlimit:10" />
		<path
   class="st1"
   d="m 11.5,27.5 c 0.1,0.2 0,0.5 -0.3,0.6 -0.2,0.1 -0.5,0 -0.6,-0.3 -0.1,-0.2 0,-0.5 0.3,-0.6 0.3,0 0.5,0.1 0.6,0.3 z"
   id="path133"
   style="clip-rule:evenodd;fill:#231f20;fill-rule:evenodd;stroke:#231f20;stroke-width:0.414;stroke-miterlimit:10" />
		<path
   class="st1"
   d="m 10.1,27.8 c 0.1,0.2 0,0.5 -0.3,0.6 -0.2,0.1 -0.5,0 -0.6,-0.3 -0.1,-0.2 0,-0.5 0.3,-0.6 0.3,-0.1 0.6,0 0.6,0.3 z"
   id="path135"
   style="clip-rule:evenodd;fill:#231f20;fill-rule:evenodd;stroke:#231f20;stroke-width:0.414;stroke-miterlimit:10" />
		<path
   class="st1"
   d="m 11.1,21.2 c 0.1,0.2 0,0.5 -0.3,0.6 -0.2,0.1 -0.5,0 -0.6,-0.3 -0.1,-0.2 0,-0.5 0.3,-0.6 0.3,-0.1 0.5,0.1 0.6,0.3 z"
   id="path137"
   style="clip-rule:evenodd;fill:#231f20;fill-rule:evenodd;stroke:#231f20;stroke-width:0.414;stroke-miterlimit:10" />
		<path
   class="st1"
   d="m 9.6,21 c 0.1,0.2 0,0.5 -0.3,0.6 -0.2,0.1 -0.5,0 -0.6,-0.3 -0.1,-0.2 0,-0.5 0.3,-0.6 0.3,0 0.6,0.1 0.6,0.3 z"
   id="path139"
   style="clip-rule:evenodd;fill:#231f20;fill-rule:evenodd;stroke:#231f20;stroke-width:0.414;stroke-miterlimit:10" />
		<path
   class="st1"
   d="m 12.7,15.6 c 0.1,0.2 0,0.5 -0.3,0.6 -0.2,0.1 -0.5,0 -0.6,-0.3 -0.1,-0.2 0,-0.5 0.3,-0.6 0.2,-0.1 0.5,0.1 0.6,0.3 z"
   id="path141"
   style="clip-rule:evenodd;fill:#231f20;fill-rule:evenodd;stroke:#231f20;stroke-width:0.414;stroke-miterlimit:10" />
		<path
   class="st1"
   d="m 11.4,14.8 c 0.1,0.2 0,0.5 -0.3,0.6 -0.2,0.1 -0.5,0 -0.6,-0.3 -0.1,-0.2 0,-0.5 0.3,-0.6 0.3,0 0.5,0.1 0.6,0.3 z"
   id="path143"
   style="clip-rule:evenodd;fill:#231f20;fill-rule:evenodd;stroke:#231f20;stroke-width:0.414;stroke-miterlimit:10" />
		<path
   class="st1"
   d="m 41.7,27.4 c 0.1,0.2 0,0.5 -0.3,0.6 -0.2,0.1 -0.5,0 -0.6,-0.3 -0.1,-0.3 0,-0.5 0.3,-0.6 0.3,0 0.5,0.1 0.6,0.3 z"
   id="path145"
   style="clip-rule:evenodd;fill:#231f20;fill-rule:evenodd;stroke:#231f20;stroke-width:0.414;stroke-miterlimit:10" />
	</g>
	<path
   class="st1"
   d="m 22.7,40.9 c 0,0.2 -0.2,0.5 -0.5,0.5 -0.2,0 -0.5,-0.2 -0.5,-0.5 0,-0.3 0.2,-0.5 0.5,-0.5 0.3,0 0.5,0.2 0.5,0.5 z"
   id="path149"
   style="clip-rule:evenodd;fill:#231f20;fill-rule:evenodd;stroke:#231f20;stroke-width:0.414;stroke-miterlimit:10" />
	<path
   class="st1"
   d="m 24.2,40.8 c 0,0.3 -0.2,0.5 -0.5,0.5 -0.2,0 -0.5,-0.2 -0.5,-0.5 0,-0.2 0.2,-0.4 0.5,-0.4 0.3,0 0.5,0.2 0.5,0.4 z"
   id="path151"
   style="clip-rule:evenodd;fill:#231f20;fill-rule:evenodd;stroke:#231f20;stroke-width:0.414;stroke-miterlimit:10" />
	<path
   class="st1"
   d="m 25.6,40.7 c 0,0.2 -0.2,0.5 -0.5,0.5 -0.3,0 -0.5,-0.2 -0.5,-0.5 0,-0.3 0.2,-0.5 0.5,-0.5 0.3,0.1 0.5,0.3 0.5,0.5 z"
   id="path153"
   style="clip-rule:evenodd;fill:#231f20;fill-rule:evenodd;stroke:#231f20;stroke-width:0.414;stroke-miterlimit:10" />
	<path
   class="st1"
   d="m 27.1,40.6 c 0,0.3 -0.2,0.5 -0.5,0.5 -0.3,0 -0.5,-0.2 -0.5,-0.5 0,-0.2 0.2,-0.5 0.5,-0.5 0.3,0.1 0.5,0.3 0.5,0.5 z"
   id="path155"
   style="clip-rule:evenodd;fill:#231f20;fill-rule:evenodd;stroke:#231f20;stroke-width:0.414;stroke-miterlimit:10" />
	<path
   class="st1"
   d="m 28.5,40.6 c 0,0.2 -0.2,0.5 -0.5,0.5 -0.3,0 -0.5,-0.2 -0.5,-0.5 0,-0.3 0.2,-0.5 0.5,-0.5 0.3,0 0.5,0.2 0.5,0.5 z"
   id="path157"
   style="clip-rule:evenodd;fill:#231f20;fill-rule:evenodd;stroke:#231f20;stroke-width:0.414;stroke-miterlimit:10" />
	<path
   class="st1"
   d="m 23.1,42.6 c 0,0.2 -0.2,0.5 -0.5,0.5 -0.3,0 -0.5,-0.2 -0.5,-0.5 0,-0.3 0.2,-0.5 0.5,-0.5 0.3,0 0.5,0.2 0.5,0.5 z"
   id="path159"
   style="clip-rule:evenodd;fill:#231f20;fill-rule:evenodd;stroke:#231f20;stroke-width:0.414;stroke-miterlimit:10" />
	<path
   class="st1"
   d="m 24.6,42.5 c 0,0.2 -0.2,0.5 -0.4,0.5 -0.3,0 -0.5,-0.2 -0.5,-0.5 0,-0.3 0.2,-0.5 0.5,-0.5 0.2,0 0.4,0.2 0.4,0.5 z"
   id="path161"
   style="clip-rule:evenodd;fill:#231f20;fill-rule:evenodd;stroke:#231f20;stroke-width:0.414;stroke-miterlimit:10" />
	<path
   class="st1"
   d="m 26,42.4 c 0,0.3 -0.2,0.5 -0.5,0.5 -0.3,0 -0.5,-0.2 -0.5,-0.5 0,-0.2 0.2,-0.5 0.5,-0.5 0.3,0 0.5,0.3 0.5,0.5 z"
   id="path163"
   style="clip-rule:evenodd;fill:#231f20;fill-rule:evenodd;stroke:#231f20;stroke-width:0.414;stroke-miterlimit:10" />
	<path
   class="st1"
   d="m 27.6,42.3 c 0,0.3 -0.2,0.5 -0.5,0.5 -0.2,0 -0.5,-0.2 -0.5,-0.5 0,-0.2 0.2,-0.5 0.5,-0.5 0.2,0.1 0.5,0.3 0.5,0.5 z"
   id="path165"
   style="clip-rule:evenodd;fill:#231f20;fill-rule:evenodd;stroke:#231f20;stroke-width:0.414;stroke-miterlimit:10" />
	<path
   class="st1"
   d="m 29,42.2 c 0,0.3 -0.2,0.5 -0.5,0.5 -0.2,0 -0.5,-0.2 -0.5,-0.5 0,-0.3 0.2,-0.5 0.5,-0.5 0.3,0.1 0.5,0.3 0.5,0.5 z"
   id="path167"
   style="clip-rule:evenodd;fill:#231f20;fill-rule:evenodd;stroke:#231f20;stroke-width:0.414;stroke-miterlimit:10" />
	<path
   class="st1"
   d="m 22.9,44.4 c 0,0.2 -0.2,0.5 -0.5,0.5 -0.2,0 -0.5,-0.2 -0.5,-0.5 0,-0.2 0.2,-0.5 0.5,-0.5 0.3,0 0.5,0.2 0.5,0.5 z"
   id="path169"
   style="clip-rule:evenodd;fill:#231f20;fill-rule:evenodd;stroke:#231f20;stroke-width:0.414;stroke-miterlimit:10" />
	<path
   class="st1"
   d="m 24.4,44.3 c 0,0.2 -0.2,0.5 -0.5,0.5 -0.2,0 -0.5,-0.2 -0.5,-0.5 0,-0.3 0.2,-0.5 0.5,-0.5 0.3,0 0.5,0.2 0.5,0.5 z"
   id="path171"
   style="clip-rule:evenodd;fill:#231f20;fill-rule:evenodd;stroke:#231f20;stroke-width:0.414;stroke-miterlimit:10" />
	<path
   class="st1"
   d="m 25.8,44.2 c 0,0.2 -0.2,0.5 -0.5,0.5 -0.3,0 -0.5,-0.2 -0.5,-0.5 0,-0.3 0.2,-0.5 0.5,-0.5 0.3,0.1 0.5,0.3 0.5,0.5 z"
   id="path173"
   style="clip-rule:evenodd;fill:#231f20;fill-rule:evenodd;stroke:#231f20;stroke-width:0.414;stroke-miterlimit:10" />
	<path
   class="st1"
   d="m 27.3,44.1 c 0,0.3 -0.2,0.5 -0.5,0.5 -0.2,0 -0.5,-0.2 -0.5,-0.5 0,-0.2 0.2,-0.5 0.5,-0.5 0.3,0.1 0.5,0.3 0.5,0.5 z"
   id="path175"
   style="clip-rule:evenodd;fill:#231f20;fill-rule:evenodd;stroke:#231f20;stroke-width:0.414;stroke-miterlimit:10" />
	<path
   class="st1"
   d="m 28.8,44 c 0,0.3 -0.2,0.5 -0.5,0.5 -0.2,0 -0.5,-0.2 -0.5,-0.5 0,-0.2 0.2,-0.5 0.5,-0.5 0.3,0.1 0.5,0.3 0.5,0.5 z"
   id="path177"
   style="clip-rule:evenodd;fill:#231f20;fill-rule:evenodd;stroke:#231f20;stroke-width:0.414;stroke-miterlimit:10" />
</g></g></svg>
